<?xml version="1.0" encoding="utf-8"?>
<!-- Generator: Adobe Illustrator 23.1.0, SVG Export Plug-In . SVG Version: 6.00 Build 0)  -->
<svg version="1.1" id="Layer_1" xmlns="http://www.w3.org/2000/svg" xmlns:xlink="http://www.w3.org/1999/xlink" x="0px" y="0px"
	 viewBox="0 0 385 463" style="enable-background:new 0 0 385 463;" xml:space="preserve">
<style type="text/css">
	.st0{fill:#FFFFFF;stroke:#2EA7E0;stroke-miterlimit:10;}
	.st1{fill:none;stroke:#2EA7E0;stroke-miterlimit:10;}
	.st2{fill:#231815;stroke:#231815;stroke-miterlimit:10;}
	.st3{fill:#E83828;}
	.st4{fill:none;stroke:#036EB8;stroke-width:0.75;stroke-miterlimit:10;}
</style>
<g>
	<g>
		<path class="st3" d="M48.22,26.37c1.64-2.16,4.58-2.98,7.09-3.56c2.92-0.68,5.91-0.96,8.91-0.91c6.08,0.11,12.08,1.71,17.41,4.65
			c2.11,1.17,4.01-2.07,1.89-3.24c-6.15-3.39-13.12-5.19-20.14-5.17c-3.44,0.01-6.93,0.45-10.25,1.34c-3.21,0.87-6.11,2.3-8.15,4.99
			c-0.62,0.81-0.12,2.09,0.67,2.57C46.61,27.61,47.61,27.17,48.22,26.37L48.22,26.37z"/>
	</g>
</g>
<g>
	<g>
		<path class="st3" d="M45.98,24.27c-2.74,0.61-4.71,4-5.89,6.32c-1.36,2.66-2.17,5.54-2.42,8.51c-0.03,0.31,0,0.66-0.06,0.96
			c0.04-0.24,0.71-0.25-0.13-0.06c-0.67,0.16-1.35,0.32-2.03,0.46c-1.47,0.31-2.9,0.77-4.07,1.74c-2.22,1.84-2.63,4.86-2.86,7.56
			c-0.21,2.4,3.54,2.39,3.75,0c0.17-2,0.4-4.47,2.56-5.27c2.24-0.82,5.71-0.5,6.42-3.41c0.3-1.22,0.18-2.55,0.43-3.8
			c0.25-1.24,0.61-2.48,1.1-3.65c0.49-1.17,1.12-2.29,1.83-3.34c0.56-0.82,1.35-2.21,2.37-2.43C49.33,27.37,48.34,23.75,45.98,24.27
			L45.98,24.27z"/>
	</g>
</g>
<g>
	<g>
		<path class="st3" d="M83.61,26.16c3.45,4.57,6.06,9.7,7.59,15.22c0.38,1.38,0.61,2.82,1.18,4.14c0.56,1.28,1.48,2.1,2.48,3.03
			c0.95,0.89,1.16,1.95,1.22,3.22c0.02,0.53,0.07,1.1,0,1.63c-0.01,0.08-0.2,0.56-0.16,0.66c0.1,0.24-0.81,0.1,0.32-0.02
			c-1.01,0.1-1.88,0.79-1.88,1.88c0,0.93,0.86,1.98,1.88,1.88c3.36-0.35,3.78-3.84,3.55-6.6c-0.14-1.65-0.52-3.24-1.59-4.55
			c-0.52-0.64-1.18-1.1-1.75-1.69c-0.58-0.6-0.81-1.29-1.02-2.08c-1.75-6.76-4.35-13-8.59-18.61c-0.62-0.81-1.61-1.22-2.57-0.67
			C83.48,24.05,83,25.35,83.61,26.16L83.61,26.16z"/>
	</g>
</g>
<g>
	<g>
		<path class="st3" d="M31.04,50.27c-1.04,3.82,1.33,8.01,5.09,9.18c0.94,0.29,2.09-0.34,2.31-1.31c0.23-1.02-0.31-2-1.31-2.31
			c-0.09-0.03-0.18-0.06-0.26-0.09c-0.07-0.03-0.34-0.14-0.03-0.01c0.33,0.14,0-0.01-0.07-0.04c-0.07-0.03-0.14-0.07-0.2-0.11
			c-0.15-0.08-0.29-0.17-0.43-0.27c-0.06-0.04-0.12-0.09-0.19-0.13c0.46,0.31,0.21,0.16,0.1,0.06c-0.26-0.22-0.48-0.47-0.7-0.72
			c-0.2-0.23,0.22,0.31,0.1,0.12c-0.05-0.08-0.11-0.15-0.16-0.23c-0.09-0.14-0.18-0.29-0.26-0.43c-0.07-0.13-0.14-0.27-0.21-0.41
			c-0.15-0.31,0.16,0.41,0.05,0.11c-0.03-0.09-0.06-0.17-0.09-0.26c-0.05-0.15-0.09-0.29-0.13-0.44c-0.04-0.15-0.13-0.39-0.11-0.54
			c-0.01,0.07,0.05,0.51,0.03,0.18c-0.01-0.08-0.01-0.15-0.02-0.23c-0.01-0.17-0.01-0.34,0-0.5c0-0.08,0.01-0.15,0.02-0.23
			c0.02-0.35-0.08,0.46-0.02,0.14c0.03-0.18,0.07-0.36,0.12-0.54c0.26-0.95-0.32-2.08-1.31-2.31
			C32.36,48.73,31.31,49.26,31.04,50.27L31.04,50.27z"/>
	</g>
</g>
<g>
	<g>
		<path class="st3" d="M40.83,58.42c-0.09,0.48-0.17,0.96-0.26,1.44c-0.08,0.25-0.09,0.5-0.03,0.75c0.01,0.25,0.09,0.48,0.22,0.7
			c0.12,0.22,0.28,0.39,0.48,0.53c0.18,0.17,0.39,0.28,0.64,0.34c0.17,0.02,0.33,0.04,0.5,0.07c0.34,0,0.65-0.09,0.95-0.26
			c0.13-0.1,0.25-0.2,0.38-0.29c0.23-0.23,0.39-0.51,0.48-0.83c0.09-0.48,0.17-0.96,0.26-1.44c0.08-0.25,0.09-0.5,0.03-0.75
			c-0.01-0.25-0.09-0.48-0.22-0.7c-0.12-0.22-0.28-0.39-0.48-0.53c-0.18-0.17-0.39-0.28-0.64-0.34c-0.17-0.02-0.33-0.04-0.5-0.07
			c-0.34,0-0.65,0.09-0.95,0.26c-0.13,0.1-0.25,0.2-0.38,0.29C41.08,57.83,40.92,58.11,40.83,58.42L40.83,58.42z"/>
	</g>
</g>
<g>
	<g>
		<path class="st3" d="M43.48,62.38c0.24,0.24,0.48,0.48,0.72,0.72c0.17,0.18,0.37,0.31,0.6,0.39c0.22,0.12,0.46,0.17,0.72,0.16
			c0.26,0.01,0.5-0.04,0.72-0.16c0.23-0.08,0.43-0.2,0.6-0.39c0.1-0.13,0.2-0.25,0.29-0.38c0.17-0.29,0.25-0.61,0.26-0.95
			c-0.02-0.17-0.04-0.33-0.07-0.5c-0.09-0.32-0.25-0.59-0.48-0.83c-0.24-0.24-0.48-0.48-0.72-0.72c-0.17-0.18-0.37-0.31-0.6-0.39
			c-0.22-0.12-0.46-0.17-0.72-0.16c-0.26-0.01-0.5,0.04-0.72,0.16c-0.23,0.08-0.43,0.2-0.6,0.39c-0.1,0.13-0.2,0.25-0.29,0.38
			c-0.17,0.29-0.25,0.61-0.26,0.95c0.02,0.17,0.04,0.33,0.07,0.5C43.09,61.87,43.25,62.14,43.48,62.38L43.48,62.38z"/>
	</g>
</g>
<g>
	<g>
		<path class="st3" d="M49.59,64.16c0.16,0,0.32,0,0.48,0c0.26,0.01,0.5-0.04,0.72-0.16c0.23-0.08,0.43-0.2,0.6-0.39
			c0.18-0.17,0.31-0.37,0.39-0.6c0.12-0.22,0.17-0.46,0.16-0.72c-0.02-0.17-0.04-0.33-0.07-0.5c-0.09-0.32-0.25-0.59-0.48-0.83
			c-0.13-0.1-0.25-0.2-0.38-0.29c-0.29-0.17-0.61-0.25-0.95-0.26c-0.16,0-0.32,0-0.48,0c-0.26-0.01-0.5,0.04-0.72,0.16
			c-0.23,0.08-0.43,0.2-0.6,0.39c-0.18,0.17-0.31,0.37-0.39,0.6c-0.12,0.22-0.17,0.46-0.16,0.72c0.02,0.17,0.04,0.33,0.07,0.5
			c0.09,0.32,0.25,0.59,0.48,0.83c0.13,0.1,0.25,0.2,0.38,0.29C48.94,64.07,49.25,64.16,49.59,64.16L49.59,64.16z"/>
	</g>
</g>
<g>
	<g>
		<path class="st3" d="M67.14,65.74c0.24,0.08,0.48,0.16,0.72,0.23c0.25,0.08,0.5,0.09,0.75,0.03c0.25-0.01,0.48-0.09,0.7-0.22
			c0.22-0.12,0.39-0.28,0.53-0.48c0.17-0.18,0.28-0.39,0.34-0.64c0.02-0.17,0.04-0.33,0.07-0.5c0-0.34-0.09-0.65-0.26-0.95
			c-0.1-0.13-0.2-0.25-0.29-0.38c-0.23-0.23-0.51-0.39-0.83-0.48c-0.24-0.08-0.48-0.16-0.72-0.23c-0.25-0.08-0.5-0.09-0.75-0.03
			c-0.25,0.01-0.48,0.09-0.7,0.22c-0.22,0.12-0.39,0.28-0.53,0.48c-0.17,0.18-0.28,0.39-0.34,0.64c-0.02,0.17-0.04,0.33-0.07,0.5
			c0,0.34,0.09,0.65,0.26,0.95c0.1,0.13,0.2,0.25,0.29,0.38C66.55,65.49,66.82,65.65,67.14,65.74L67.14,65.74z"/>
	</g>
</g>
<g>
	<g>
		<path class="st3" d="M78.93,63.81c1.04,0.34,2.07,0.68,3.11,1.02c0.45,0.15,1.04,0.05,1.44-0.19c0.39-0.23,0.76-0.67,0.86-1.12
			c0.11-0.48,0.09-1.02-0.19-1.44c-0.27-0.42-0.64-0.7-1.12-0.86c-1.04-0.34-2.07-0.68-3.11-1.02c-0.45-0.15-1.04-0.05-1.44,0.19
			c-0.39,0.23-0.76,0.67-0.86,1.12c-0.11,0.48-0.09,1.02,0.19,1.44C78.08,63.37,78.45,63.65,78.93,63.81L78.93,63.81z"/>
	</g>
</g>
<g>
	<g>
		<path class="st3" d="M85.19,63.68c2.41,0,2.42-3.75,0-3.75C82.77,59.93,82.77,63.68,85.19,63.68L85.19,63.68z"/>
	</g>
</g>
<g>
	<g>
		<path class="st3" d="M89.27,62.48c0.08,0,0.16,0,0.24,0c0.26,0.01,0.5-0.04,0.72-0.16c0.23-0.08,0.43-0.2,0.6-0.39
			c0.18-0.17,0.31-0.37,0.39-0.6c0.12-0.22,0.17-0.46,0.16-0.72c-0.02-0.17-0.04-0.33-0.07-0.5c-0.09-0.32-0.25-0.59-0.48-0.83
			c-0.13-0.1-0.25-0.2-0.38-0.29c-0.29-0.17-0.61-0.25-0.95-0.26c-0.08,0-0.16,0-0.24,0c-0.26-0.01-0.5,0.04-0.72,0.16
			c-0.23,0.08-0.43,0.2-0.6,0.39c-0.18,0.17-0.31,0.37-0.39,0.6c-0.12,0.22-0.17,0.46-0.16,0.72c0.02,0.17,0.04,0.33,0.07,0.5
			c0.09,0.32,0.25,0.59,0.48,0.83c0.13,0.1,0.25,0.2,0.38,0.29C88.62,62.39,88.94,62.48,89.27,62.48L89.27,62.48z"/>
	</g>
</g>
<g>
	<g>
		<path class="st3" d="M54.98,41.69c2.41,0,2.42-3.75,0-3.75C52.57,37.94,52.56,41.69,54.98,41.69L54.98,41.69z"/>
	</g>
</g>
<g>
	<g>
		<path class="st3" d="M71.95,41.2c2.41,0,2.42-3.75,0-3.75C69.54,37.45,69.53,41.2,71.95,41.2L71.95,41.2z"/>
	</g>
</g>
<g>
	<g>
		<path class="st3" d="M63.44,42.94c-0.54,0.34-1.1,0.64-1.67,0.91c-0.33,0.15-0.45,0.2-0.79,0.33c-0.3,0.11-0.6,0.22-0.9,0.31
			c-0.31,0.1-0.54,0.44-0.44,0.77c0.1,0.31,0.43,0.54,0.77,0.44c1.28-0.4,2.52-0.96,3.66-1.68c0.28-0.17,0.41-0.57,0.22-0.86
			C64.12,42.88,63.74,42.75,63.44,42.94L63.44,42.94z"/>
	</g>
</g>
<g>
	<g>
		<path class="st3" d="M63.69,44.12c1.13,1.19,2.56,2.06,4.12,2.54c0.31,0.1,0.7-0.11,0.77-0.44c0.08-0.34-0.1-0.67-0.44-0.77
			c-0.17-0.05-0.34-0.11-0.51-0.17c-0.09-0.03-0.18-0.07-0.27-0.1c-0.03-0.01-0.09-0.04-0.03-0.01c-0.05-0.02-0.1-0.04-0.15-0.06
			c-0.34-0.15-0.66-0.33-0.98-0.52c-0.15-0.09-0.3-0.19-0.45-0.3c-0.18-0.12-0.21-0.15-0.35-0.27c-0.3-0.24-0.57-0.5-0.84-0.78
			c-0.23-0.24-0.66-0.24-0.88,0C63.45,43.49,63.45,43.86,63.69,44.12L63.69,44.12z"/>
	</g>
</g>
<g>
	<g>
		<path class="st3" d="M63.48,43.02c0.12-0.05,0.24-0.09,0.37-0.11c-0.06,0.01-0.11,0.01-0.17,0.02c0.06-0.01,0.12-0.01,0.18,0
			c-0.06-0.01-0.11-0.01-0.17-0.02c0.05,0.01,0.09,0.02,0.14,0.04c-0.05-0.02-0.1-0.04-0.15-0.06c0.04,0.02,0.07,0.04,0.11,0.06
			c-0.04-0.03-0.08-0.07-0.13-0.1c0.02,0.02,0.05,0.04,0.07,0.06c-0.03-0.04-0.07-0.08-0.1-0.13c0.02,0.02,0.03,0.05,0.05,0.08
			c-0.02-0.05-0.04-0.1-0.06-0.15c0.01,0.02,0.02,0.05,0.02,0.08c-0.01-0.06-0.01-0.11-0.02-0.17c0,0.03,0,0.05,0,0.08
			c0.01-0.06,0.01-0.11,0.02-0.17c0,0.03-0.01,0.05-0.02,0.08c0.02-0.05,0.04-0.1,0.06-0.15c-0.01,0.02-0.02,0.05-0.04,0.07
			c0.03-0.04,0.07-0.08,0.1-0.13c-0.01,0.02-0.03,0.03-0.04,0.05c0.04-0.03,0.08-0.07,0.13-0.1c-0.02,0.01-0.03,0.02-0.05,0.03
			c0.05-0.02,0.1-0.04,0.15-0.06c-0.02,0.01-0.03,0.01-0.05,0.01c0.06-0.01,0.11-0.01,0.17-0.02c-0.02,0-0.04,0-0.07,0
			c0.06,0.01,0.11,0.01,0.17,0.02c-0.03-0.01-0.06-0.01-0.09-0.02c0.05,0.02,0.1,0.04,0.15,0.06c-0.13-0.06-0.25-0.14-0.37-0.21
			c-0.13-0.07-0.25-0.15-0.38-0.22c-0.14-0.08-0.32-0.11-0.48-0.06c-0.14,0.04-0.3,0.15-0.37,0.29c-0.08,0.15-0.12,0.32-0.06,0.48
			c0.05,0.15,0.14,0.29,0.29,0.37c0.2,0.11,0.39,0.23,0.59,0.34c0.12,0.07,0.26,0.15,0.4,0.17c0.22,0.04,0.46,0.03,0.65-0.11
			c0.12-0.09,0.18-0.15,0.27-0.27c0.05-0.07,0.08-0.16,0.11-0.24c0.03-0.08,0.03-0.17,0.04-0.25c0-0.02,0-0.04,0-0.05
			c-0.01-0.07-0.01-0.14-0.03-0.2c-0.09-0.35-0.4-0.61-0.74-0.7c-0.33-0.09-0.65-0.02-0.96,0.1c-0.08,0.02-0.15,0.06-0.21,0.11
			c-0.07,0.04-0.12,0.1-0.16,0.18c-0.08,0.13-0.11,0.33-0.06,0.48c0.05,0.15,0.14,0.3,0.29,0.37
			C63.14,43.03,63.32,43.07,63.48,43.02L63.48,43.02z"/>
	</g>
</g>
<g>
	<g>
		<path class="st3" d="M88.21,47.23c1.26-0.28,2.63-0.2,3.91-0.24c1.3-0.04,2.59-0.06,3.89-0.06c2.69,0.01,5.37,0.18,8.02,0.66
			c0.79,0.14,1.12-1.06,0.33-1.21c-2.76-0.5-5.55-0.69-8.35-0.7c-1.4-0.01-2.8,0.02-4.2,0.07c-1.3,0.04-2.66-0.01-3.94,0.27
			C87.1,46.19,87.43,47.4,88.21,47.23L88.21,47.23z"/>
	</g>
</g>
<g>
	<g>
		<path class="st3" d="M91.32,50.13c6.36,0.16,12.68,0.93,18.89,2.31c0.78,0.17,1.12-1.03,0.33-1.21
			c-6.32-1.4-12.75-2.19-19.22-2.35C90.51,48.86,90.51,50.11,91.32,50.13L91.32,50.13z"/>
	</g>
</g>
<g>
	<g>
		<path class="st3" d="M93.4,52.82c5.07,1.27,9.83,3.6,13.91,6.88c0.62,0.5,1.51-0.38,0.88-0.88c-4.25-3.41-9.17-5.88-14.46-7.2
			C92.95,51.42,92.62,52.63,93.4,52.82L93.4,52.82z"/>
	</g>
</g>
<g>
	<g>
		<path class="st3" d="M25.08,41.99c5.34,0.9,10.54,2.55,15.41,4.91c0.72,0.35,1.36-0.73,0.63-1.08
			c-4.98-2.41-10.26-4.12-15.71-5.04C24.62,40.65,24.28,41.86,25.08,41.99L25.08,41.99z"/>
	</g>
</g>
<g>
	<g>
		<path class="st3" d="M23.67,47.73c5.03-0.17,10.12-0.32,15.02,1.01c0.78,0.21,1.11-0.99,0.33-1.21
			c-5.01-1.36-10.21-1.23-15.35-1.06C22.87,46.5,22.87,47.75,23.67,47.73L23.67,47.73z"/>
	</g>
</g>
<g>
	<g>
		<path class="st3" d="M26.6,53.74c5.42-1.04,10.91-1.56,16.43-1.58c0.8,0,0.81-1.25,0-1.25c-5.63,0.01-11.24,0.56-16.76,1.62
			C25.48,52.68,25.82,53.89,26.6,53.74L26.6,53.74z"/>
	</g>
</g>
<g>
	<g>
		<path class="st3" d="M61.08,44.7c-0.04,1,0.03,2,0.22,2.98c0.15,0.82,0.38,1.68,0.85,2.38c0.54,0.78,1.4,1.4,2.35,0.9
			c0.84-0.44,1.11-1.47,1.35-2.31c0.3-1.08,0.48-2.19,0.55-3.31c0.02-0.34-0.3-0.63-0.63-0.63c-0.35,0-0.61,0.29-0.63,0.63
			c-0.06,1.01-0.23,2-0.5,2.97c-0.1,0.34-0.44,1.93-1.06,1.5c-0.63-0.44-0.85-1.39-1.01-2.09c-0.22-0.99-0.29-2.01-0.25-3.02
			C62.37,43.89,61.12,43.9,61.08,44.7L61.08,44.7z"/>
	</g>
</g>
<g>
	<g>
		<path class="st3" d="M145.07,61.01c-2.52,1.61-5.13,3.07-7.82,4.38c-1.34,0.65-1.72,2.96-0.51,3.93
			c4.77,3.78,10.39,6.03,16.46,6.52c1.31,0.1,2.56-1.22,2.5-2.5c-0.06-1.44-1.1-2.39-2.5-2.5c-0.33-0.03-0.65-0.06-0.98-0.09
			c-0.3-0.04-0.33-0.04-0.07,0c-0.16-0.02-0.33-0.05-0.49-0.07c-0.65-0.1-1.29-0.23-1.93-0.39c-1.2-0.29-2.38-0.65-3.53-1.1
			c-0.15-0.06-0.31-0.12-0.46-0.18c0.22,0.09,0.19,0.08-0.08-0.04c-0.3-0.14-0.6-0.27-0.89-0.41c-0.52-0.25-1.03-0.52-1.53-0.8
			c-0.57-0.32-1.13-0.67-1.68-1.04c-0.27-0.18-0.54-0.37-0.81-0.56c-0.13-0.1-0.27-0.19-0.4-0.29c0.18,0.14,0.15,0.12-0.08-0.06
			c-0.17,1.31-0.34,2.62-0.51,3.93c2.69-1.31,5.3-2.77,7.82-4.38c1.1-0.7,1.65-2.26,0.9-3.42C147.78,60.8,146.25,60.25,145.07,61.01
			L145.07,61.01z"/>
	</g>
</g>
<g>
	<g>
		<path class="st3" d="M150.31,60.8c-0.53-13.15,0.91-27.98,12.57-36.26c6.07-4.32,13.37-6.47,20.62-7.81
			c8.35-1.54,16.91-1.99,25.39-2.24c18.07-0.52,36.14,0.3,54.2-0.41c16.68-0.65,33.69-1.96,50.23,0.96
			c7.58,1.34,15.06,3.55,21.85,7.21c5.97,3.22,11.36,7.42,15.86,12.5c8.07,9.1,13.06,21.34,11.5,33.59
			c-0.42,3.32-1.41,6.73-3.86,9.13c-2.3,2.25-5.44,3.35-8.51,4.05c-3.5,0.8-7.08,1.03-10.66,1.2c-4.55,0.21-9.1,0.38-13.65,0.55
			c-18.49,0.68-36.99,1.12-55.5,1.17c-18.49,0.05-36.98-0.29-55.45-1.15c-9.22-0.43-18.44-1-27.65-1.71
			c-4.52-0.35-9.03-0.74-13.55-1.16c-3.2-0.3-6.44-0.75-9.45-1.93c-1.03-0.4-2.3-1.09-2.96-1.68c-0.23-0.21-0.46-0.43-0.66-0.67
			c-0.18-0.23-0.04-0.06-0.01-0.01c-0.1-0.14-0.18-0.29-0.27-0.44c-0.12-0.21-0.27-0.7-0.29-0.96c-0.1-1.35-1.08-2.5-2.5-2.5
			c-1.28,0-2.6,1.15-2.5,2.5c0.53,7.19,8.97,9.45,14.9,10.27c9.22,1.28,18.61,1.74,27.89,2.34c19.18,1.25,38.4,1.89,57.63,2.06
			c19.33,0.17,38.66-0.11,57.98-0.7c9.33-0.28,18.67-0.51,27.99-1.07c7.23-0.43,15.73-1.36,21.03-6.9
			c5.09-5.3,5.79-13.73,5.13-20.72c-0.64-6.72-2.77-13.2-6.08-19.07c-7.17-12.71-19.33-22.1-32.95-27.03
			c-16.43-5.96-34.35-5.97-51.6-5.36c-8.92,0.31-17.83,0.8-26.75,0.91c-9.61,0.11-19.21-0.1-28.82-0.1
			c-9.56,0-19.13,0.19-28.64,1.12c-8.01,0.78-16.13,2.06-23.63,5.1c-7.2,2.92-13.58,7.4-17.77,14.05
			c-3.92,6.22-5.51,13.57-6.01,20.82c-0.24,3.46-0.21,6.92-0.07,10.38C145.44,64.01,150.44,64.02,150.31,60.8L150.31,60.8z"/>
	</g>
</g>
<g>
	<g>
		<path class="st3" d="M168.66,36.5c0.45,4.17,1.19,8.3,2.3,12.34c0.34,1.26,1.79,2.16,3.08,1.75c1.29-0.42,2.11-1.72,1.75-3.08
			c-0.51-1.88-0.95-3.77-1.32-5.68c-0.18-0.96-0.35-1.91-0.49-2.88c-0.03-0.22-0.06-0.44-0.1-0.67c-0.11-0.74,0.06,0.52-0.03-0.23
			c-0.07-0.52-0.13-1.04-0.18-1.56c-0.14-1.3-1.05-2.56-2.5-2.5C169.92,34.06,168.51,35.11,168.66,36.5L168.66,36.5z"/>
	</g>
</g>
<g>
	<g>
		<path class="st3" d="M172.1,38.08c4.37-0.09,8.74-0.19,13.11-0.28c0.99-0.02,1.97-0.04,2.96-0.06c0.5-0.01,1.16-0.14,1.65-0.03
			c0.2,0.05-0.03-0.13-0.05-0.15c0.39,0.28,0.52,1.15,0.7,1.71c0.25,0.8,0.5,1.64,0.47,2.49c-0.1,3.05-4.59,3.98-7,4.13
			c-3.99,0.25-7.83-0.9-11.61-2c-3.1-0.9-4.42,3.92-1.33,4.82c7,2.04,15.57,4.07,21.9-0.87c3.35-2.61,3.51-6.64,2.23-10.41
			c-0.57-1.66-1.29-3.35-2.93-4.2c-1.77-0.92-4.2-0.49-6.12-0.45c-4.65,0.1-9.31,0.2-13.96,0.3
			C168.89,33.15,168.88,38.15,172.1,38.08L172.1,38.08z"/>
	</g>
</g>
<g>
	<g>
		<path class="st3" d="M182.5,52.1c0,1.6,0,3.2,0,4.8c0,0.64,0.28,1.31,0.73,1.77c0.43,0.43,1.15,0.76,1.77,0.73
			c0.65-0.03,1.32-0.24,1.77-0.73c0.45-0.49,0.73-1.09,0.73-1.77c0-1.6,0-3.2,0-4.8c0-0.64-0.28-1.31-0.73-1.77
			c-0.43-0.43-1.15-0.76-1.77-0.73c-0.65,0.03-1.32,0.24-1.77,0.73C182.78,50.82,182.5,51.42,182.5,52.1L182.5,52.1z"/>
	</g>
</g>
<g>
	<g>
		<path class="st3" d="M176.9,62.41c5.29-0.3,10.6-0.4,15.9-0.3c1.31,0.02,2.56-1.17,2.5-2.5c-0.06-1.38-1.1-2.47-2.5-2.5
			c-5.3-0.1-10.61,0-15.9,0.3c-1.3,0.07-2.56,1.1-2.5,2.5C174.46,61.2,175.5,62.49,176.9,62.41L176.9,62.41z"/>
	</g>
</g>
<g>
	<g>
		<path class="st3" d="M202.28,44.52c-2.6,2.39-3.34,6.11-2.67,9.48c0.66,3.33,2.89,6.38,5.29,8.69c1.38,1.33,3.13,2.41,5.12,2.33
			c1.98-0.08,3.66-1.22,4.78-2.8c2.4-3.35,1.04-7.49-0.66-10.8c-1.89-3.69-4.82-7.28-9.34-7.29c-1.31,0-2.56,1.15-2.5,2.5
			c0.06,1.36,1.1,2.49,2.5,2.5c0.17,0,0.35,0,0.52,0.02c-0.06-0.01-0.31-0.05-0.03,0.01c0.29,0.06,0.59,0.14,0.87,0.26
			c-0.29-0.13,0.26,0.16,0.34,0.21c0.15,0.09,0.3,0.18,0.44,0.28c-0.21-0.14,0.06,0.04,0.12,0.09c1,0.87,1.43,1.55,2.1,2.73
			c0.64,1.12,1.23,2.23,1.6,3.36c0.19,0.59,0.35,1.26,0.35,1.64c0,0.1-0.01,0.8,0.03,0.44c-0.04,0.3-0.13,0.62-0.24,0.9
			c0.16-0.41-0.16,0.23-0.22,0.34c-0.14,0.24,0.01,0.01,0.05-0.04c-0.1,0.12-0.21,0.22-0.31,0.34c-0.3,0.33,0.15-0.08-0.2,0.17
			c-0.34,0.24-0.14,0.09,0,0.04c-0.14,0.05-0.28,0.09-0.42,0.12c0.13-0.04,0.46,0.01,0-0.02c-0.03,0-0.38-0.06-0.14-0.01
			c0.26,0.06-0.14-0.06-0.15-0.06c0.1,0.05,0.35,0.2-0.08-0.04c-0.63-0.36-0.57-0.34-1.09-0.85c-0.89-0.87-1.62-1.72-2.19-2.55
			c-0.35-0.51-0.68-1.05-0.96-1.61c-0.04-0.08-0.31-0.64-0.19-0.37c-0.14-0.32-0.25-0.67-0.35-1c-0.1-0.32-0.17-0.65-0.24-0.98
			c-0.02-0.09-0.05-0.48-0.01-0.04c-0.01-0.16-0.03-0.32-0.03-0.48c-0.01-0.32,0-0.64,0.01-0.95c0-0.02,0.03-0.42,0-0.14
			c-0.03,0.29,0.07-0.38,0.07-0.37c0.07-0.31,0.16-0.61,0.25-0.91c0.01-0.02,0.14-0.38,0.04-0.14c-0.1,0.23,0.1-0.19,0.12-0.23
			c0.07-0.14,0.15-0.27,0.23-0.4c0.02-0.04,0.28-0.42,0.14-0.22c-0.15,0.2,0.08-0.09,0.1-0.11c0.16-0.17,0.32-0.34,0.5-0.5
			c0.99-0.91,0.93-2.61,0-3.54C204.82,43.53,203.27,43.61,202.28,44.52L202.28,44.52z"/>
	</g>
</g>
<g>
	<g>
		<path class="st3" d="M212.43,36.62c3.11,6.39,5.43,13.13,7.01,20.06c0.3,1.32,1.82,2.09,3.08,1.75c1.35-0.37,2.05-1.75,1.75-3.08
			c-1.68-7.35-4.22-14.47-7.52-21.25c-0.59-1.21-2.32-1.54-3.42-0.9C212.08,33.92,211.83,35.4,212.43,36.62L212.43,36.62z"/>
	</g>
</g>
<g>
	<g>
		<path class="st3" d="M221,51.32c2.4-0.27,4.81-0.54,7.21-0.81c0.68-0.08,1.26-0.23,1.77-0.73c0.43-0.43,0.76-1.15,0.73-1.77
			c-0.03-0.65-0.24-1.32-0.73-1.77c-0.46-0.42-1.12-0.8-1.77-0.73c-2.4,0.27-4.81,0.54-7.21,0.81c-0.68,0.08-1.26,0.23-1.77,0.73
			c-0.43,0.43-0.76,1.15-0.73,1.77c0.03,0.65,0.24,1.32,0.73,1.77C219.69,51.01,220.36,51.39,221,51.32L221,51.32z"/>
	</g>
</g>
<g>
	<g>
		<path class="st3" d="M236.3,51.97c-3.59-0.02-7.77,0.74-9.6,4.26c-1.96,3.78,0.27,7.79,3.7,9.72c1.55,0.88,3.3,1.5,5.02,1.96
			c1.77,0.47,3.87,1.02,5.69,0.6c3.75-0.88,4.41-5.78,3.57-8.91c-0.89-3.32-3.5-6.15-6.85-7.05c-1.26-0.34-2.77,0.42-3.08,1.75
			c-0.3,1.31,0.39,2.71,1.75,3.08c0.16,0.04,0.58,0.09,0.69,0.22c-0.14-0.17-0.37-0.18-0.11-0.04c0.1,0.06,0.21,0.11,0.32,0.16
			c0.21,0.11,0.4,0.25,0.61,0.38c0.18,0.11,0.28,0.07-0.08-0.07c0.12,0.04,0.25,0.21,0.34,0.29c0.18,0.16,0.34,0.33,0.5,0.51
			c0.08,0.09,0.15,0.19,0.23,0.27c0.23,0.24-0.2-0.38-0.06-0.08c0.19,0.4,0.73,0.86,0.76,1.33c0-0.04-0.2-0.55-0.05-0.1
			c0.04,0.11,0.08,0.23,0.12,0.34c0.07,0.23,0.14,0.46,0.19,0.69c0.02,0.08,0.02,0.19,0.05,0.26c0.12,0.31-0.02-0.47-0.01-0.13
			c0.01,0.27,0.04,0.53,0.04,0.8c0,0.18,0.04,0.56-0.04,0.71c0.15-0.27,0.08-0.4,0.01-0.14c-0.03,0.11-0.05,0.23-0.08,0.35
			c-0.06,0.24-0.14,0.48-0.23,0.7c0.05-0.11,0.23-0.41-0.01-0.06c-0.26,0.4,0.17-0.18-0.03,0.04c-0.2,0.23,0.19-0.1,0.23-0.14
			c0.18-0.21-0.27,0.02,0.03-0.01c0.34-0.04-0.11-0.02-0.19-0.02c-0.14,0-0.28-0.02-0.43-0.03c-0.38-0.02,0.39,0.07-0.03,0
			c-0.13-0.02-0.25-0.04-0.38-0.06c-0.42-0.07-0.84-0.15-1.26-0.25c-0.67-0.15-1.32-0.33-1.97-0.54c-0.28-0.09-0.57-0.19-0.85-0.29
			c-0.16-0.06-0.32-0.12-0.48-0.18c-0.17-0.06-0.53-0.22-0.18-0.07c-0.55-0.24-1.1-0.51-1.61-0.83c-0.11-0.07-0.74-0.57-0.41-0.27
			c-0.24-0.23-0.47-0.47-0.71-0.7c-0.26-0.25,0.17,0.31,0-0.01c-0.07-0.13-0.16-0.24-0.23-0.37c-0.04-0.06-0.24-0.47-0.11-0.18
			c0.13,0.28-0.04-0.13-0.06-0.2c-0.04-0.14-0.06-0.28-0.1-0.41c-0.08-0.28,0.02,0.1,0.02,0.14c0.01-0.1,0.01-0.31,0-0.42
			c-0.05,0.29-0.06,0.34-0.02,0.16c0.02-0.1,0.04-0.19,0.07-0.28c0.03-0.13,0.18-0.41-0.05,0.05c0.07-0.14,0.14-0.29,0.23-0.43
			c0.04-0.07,0.28-0.41,0.08-0.15c-0.21,0.28,0.14-0.14,0.19-0.19c0.09-0.09,0.19-0.18,0.29-0.27c0.33-0.32-0.2,0.09,0.05-0.03
			c0.26-0.14,0.51-0.31,0.78-0.44c-0.4,0.21-0.06,0.03,0.04-0.01c0.23-0.07,0.46-0.15,0.7-0.21c0.16-0.04,0.32-0.07,0.48-0.1
			c0.08-0.01,0.16-0.03,0.24-0.04c-0.22,0.02-0.24,0.03-0.06,0.01c0.78-0.07,1.56-0.1,2.35-0.09c1.31,0.01,2.56-1.16,2.5-2.5
			C238.74,53.11,237.7,51.98,236.3,51.97L236.3,51.97z"/>
	</g>
</g>
<g>
	<g>
		<path class="st3" d="M229.33,65.9c-0.18,2.24-0.04,4.45,0.29,6.67c0.08,0.58,0.67,1.21,1.15,1.49c0.54,0.31,1.33,0.45,1.93,0.25
			c0.6-0.2,1.19-0.57,1.49-1.15c0.08-0.2,0.17-0.4,0.25-0.6c0.12-0.44,0.12-0.89,0-1.33c-0.02-0.12-0.03-0.23-0.05-0.35
			c0.03,0.22,0.06,0.44,0.09,0.66c-0.25-1.88-0.3-3.77-0.15-5.66c0.05-0.61-0.31-1.35-0.73-1.77c-0.43-0.43-1.15-0.76-1.77-0.73
			c-0.65,0.03-1.32,0.24-1.77,0.73C229.59,64.64,229.38,65.21,229.33,65.9L229.33,65.9z"/>
	</g>
</g>
<g>
	<g>
		<path class="st3" d="M234.6,68.03c0.46,1.59,0.81,3.2,1.03,4.84c-0.03-0.22-0.06-0.44-0.09-0.66c0.01,0.1,0.03,0.2,0.04,0.29
			c-0.01,0.34,0.06,0.67,0.22,0.96c0.1,0.31,0.27,0.58,0.52,0.8c0.43,0.43,1.15,0.76,1.77,0.73c0.65-0.03,1.32-0.24,1.77-0.73
			c0.42-0.45,0.81-1.13,0.73-1.77c-0.25-1.96-0.6-3.9-1.16-5.8c-0.18-0.61-0.6-1.17-1.15-1.49c-0.54-0.31-1.33-0.45-1.93-0.25
			c-0.6,0.2-1.19,0.57-1.49,1.15C234.54,66.7,234.4,67.38,234.6,68.03L234.6,68.03z"/>
	</g>
</g>
<g>
	<g>
		<path class="st3" d="M225.8,77.99c6.3-0.46,12.61-0.92,18.91-1.39c1.35-0.1,2.5-1.08,2.5-2.5c0-1.28-1.15-2.6-2.5-2.5
			c-6.3,0.46-12.61,0.92-18.91,1.39c-1.35,0.1-2.5,1.08-2.5,2.5C223.3,76.76,224.45,78.09,225.8,77.99L225.8,77.99z"/>
	</g>
</g>
<g>
	<g>
		<path class="st3" d="M246.12,35.22c-1.08,5.46-1.51,11.02-1.19,16.58c0.08,1.3,1.1,2.56,2.5,2.5c1.29-0.06,2.58-1.1,2.5-2.5
			c-0.3-5.18,0.03-10.29,1.01-15.25c0.25-1.28-0.36-2.76-1.75-3.08C247.95,33.19,246.39,33.85,246.12,35.22L246.12,35.22z"/>
	</g>
</g>
<g>
	<g>
		<path class="st3" d="M246.17,46.39c3.69,1.91,7.47,3.64,11.31,5.24c0.56,0.23,1.43,0.04,1.93-0.25c0.52-0.3,1.01-0.9,1.15-1.49
			c0.15-0.64,0.11-1.36-0.25-1.93c-0.38-0.58-0.86-0.88-1.49-1.15c-0.1-0.04-0.93-0.38-0.36-0.15c-0.19-0.08-0.38-0.16-0.57-0.24
			c-0.44-0.19-0.89-0.38-1.33-0.58c-0.89-0.39-1.77-0.79-2.64-1.2c-1.75-0.82-3.49-1.67-5.21-2.56c-1.16-0.6-2.77-0.34-3.42,0.9
			C244.67,44.12,244.93,45.75,246.17,46.39L246.17,46.39z"/>
	</g>
</g>
<g>
	<g>
		<path class="st3" d="M249.27,62.97c0.52-0.26,1.05-0.52,1.58-0.77c0.3-0.14,0.61-0.27,0.92-0.41c0.51-0.23-0.14,0.05,0.33-0.14
			c1.13-0.46,2.26-0.88,3.42-1.25c2.27-0.74,4.6-1.3,6.95-1.69c1.29-0.22,2.13-1.88,1.75-3.08c-0.45-1.4-1.69-1.98-3.08-1.75
			c-5.01,0.84-9.85,2.48-14.39,4.77c-1.17,0.59-1.6,2.33-0.9,3.42C246.62,63.27,248.01,63.6,249.27,62.97L249.27,62.97z"/>
	</g>
</g>
<g>
	<g>
		<path class="st3" d="M265.12,39.68c3.48,0.35,6.98,0.47,10.48,0.36c1.31-0.04,2.56-1.12,2.5-2.5c-0.06-1.32-1.1-2.55-2.5-2.5
			c-3.5,0.12-7,0-10.48-0.36c-1.31-0.13-2.56,1.24-2.5,2.5C262.69,38.64,263.72,39.54,265.12,39.68L265.12,39.68z"/>
	</g>
</g>
<g>
	<g>
		<path class="st3" d="M263.91,45.81c3.7,0.34,7.39,0.67,11.09,1.01c1.31,0.12,2.56-1.23,2.5-2.5c-0.07-1.46-1.1-2.37-2.5-2.5
			c-3.7-0.34-7.39-0.67-11.09-1.01c-1.31-0.12-2.56,1.23-2.5,2.5C261.47,44.76,262.51,45.68,263.91,45.81L263.91,45.81z"/>
	</g>
</g>
<g>
	<g>
		<path class="st3" d="M268.25,45.1c-0.67,2.38-0.97,4.9-0.88,7.37c0.04,1.06,0.74,2.16,1.84,2.41c2.48,0.56,5.05,0.79,7.59,0.6
			c0.67-0.05,1.28-0.25,1.77-0.73c0.43-0.43,0.76-1.15,0.73-1.77c-0.06-1.27-1.1-2.6-2.5-2.5c-1.62,0.12-3.25,0.07-4.87-0.14
			c0.22,0.03,0.44,0.06,0.66,0.09c-0.69-0.1-1.38-0.22-2.06-0.37c0.61,0.8,1.22,1.61,1.84,2.41c-0.05-1.25,0.01-2.49,0.17-3.73
			c-0.03,0.22-0.06,0.44-0.09,0.66c0.14-1.01,0.34-2,0.62-2.98c0.35-1.26-0.43-2.78-1.75-3.08C270,43.05,268.63,43.75,268.25,45.1
			L268.25,45.1z"/>
	</g>
</g>
<g>
	<g>
		<path class="st3" d="M280.25,41.9c0.27,4.61,0.7,9.21,1.28,13.79c0.16,1.29,1.03,2.57,2.5,2.5c1.21-0.05,2.68-1.11,2.5-2.5
			c-0.58-4.58-1.01-9.18-1.28-13.79c-0.08-1.3-1.1-2.56-2.5-2.5C281.47,39.46,280.17,40.5,280.25,41.9L280.25,41.9z"/>
	</g>
</g>
<g>
	<g>
		<path class="st3" d="M283.4,50.37c0.61,0.08,1.23,0.11,1.85,0.07c0.81-0.05,1.64-0.16,2.43-0.36c0.6-0.15,1.19-0.62,1.49-1.15
			c0.18-0.29,0.28-0.6,0.3-0.93c0.07-0.33,0.06-0.66-0.04-1c-0.2-0.6-0.57-1.19-1.15-1.49c-0.61-0.32-1.25-0.42-1.93-0.25
			c-0.33,0.08-0.67,0.15-1.01,0.19c0.22-0.03,0.44-0.06,0.66-0.09c-0.86,0.12-1.74,0.12-2.6,0c-0.34-0.01-0.67,0.06-0.96,0.22
			c-0.31,0.1-0.58,0.27-0.8,0.52c-0.43,0.43-0.76,1.15-0.73,1.77c0.03,0.65,0.24,1.32,0.73,1.77c0.17,0.13,0.34,0.26,0.51,0.39
			C282.53,50.26,282.95,50.37,283.4,50.37L283.4,50.37z"/>
	</g>
</g>
<g>
	<g>
		<path class="st3" d="M286.5,41.09c0.69,4.99,1.39,9.97,2.08,14.96c0.18,1.3,1.91,2.12,3.08,1.75c1.43-0.46,1.94-1.68,1.75-3.08
			c-0.69-4.99-1.39-9.97-2.08-14.96c-0.18-1.3-1.91-2.12-3.08-1.75C286.82,38.48,286.31,39.7,286.5,41.09L286.5,41.09z"/>
	</g>
</g>
<g>
	<g>
		<path class="st3" d="M272.57,62.67c0.39,1.7,0.79,3.4,1.18,5.1c0.14,0.6,0.63,1.19,1.15,1.49c0.54,0.31,1.33,0.45,1.93,0.25
			c1.33-0.43,2.06-1.71,1.75-3.08c-0.39-1.7-0.79-3.4-1.18-5.1c-0.14-0.6-0.63-1.19-1.15-1.49c-0.54-0.31-1.33-0.45-1.93-0.25
			C272.98,60.02,272.25,61.3,272.57,62.67L272.57,62.67z"/>
	</g>
</g>
<g>
	<g>
		<path class="st3" d="M274.4,62.71c2.6-0.01,5.2-0.01,7.79-0.02c0.65,0,1.3,0.01,1.94,0c0.24,0.01,0.25,0.01,0.03-0.01
			c-0.46-0.01-0.82-0.26-1.1-0.74c-0.31-0.59,0.01,0.17,0.05,0.33c0.3,1.24,0.57,2.49,0.83,3.74c0.12,0.61,0.24,1.21,0.35,1.82
			c0.06,0.32,0.12,0.65,0.17,0.97c0.02,0.14,0.16,1.19,0.08,0.44c-0.01,0.44,0.06,0.26,0.21-0.54c0.21-0.36,0.5-0.61,0.88-0.74
			c0.33-0.09,0.42-0.02,0.01-0.04c-0.27-0.01-0.53-0.05-0.8-0.08c-0.3-0.04-0.31-0.04-0.04,0c-0.16-0.02-0.31-0.04-0.47-0.07
			c-2.43-0.36-4.82-0.93-7.15-1.69c-1.24-0.4-2.78,0.47-3.08,1.75c-0.31,1.37,0.41,2.64,1.75,3.08c2.18,0.71,4.42,1.26,6.68,1.62
			c1.14,0.18,2.36,0.46,3.52,0.39c1.89-0.12,3.32-1.38,3.48-3.29c0.1-1.19-0.32-2.55-0.54-3.73c-0.22-1.17-0.46-2.34-0.73-3.51
			c-0.29-1.28-0.48-2.72-1.45-3.69c-1.13-1.12-2.67-1.02-4.13-1.02c-2.77,0.01-5.53,0.02-8.3,0.02c-1.31,0-2.56,1.15-2.5,2.5
			C271.96,61.56,273,62.71,274.4,62.71L274.4,62.71z"/>
	</g>
</g>
<g>
	<g>
		<path class="st3" d="M298.1,47.4c5.9,0,11.8,0,17.7,0c1.35,0,2.5-1.15,2.5-2.5c0-1.36-1.14-2.5-2.5-2.5c-5.9,0-11.8,0-17.7,0
			c-1.35,0-2.5,1.15-2.5,2.5C295.6,46.26,296.74,47.4,298.1,47.4L298.1,47.4z"/>
	</g>
</g>
<g>
	<g>
		<path class="st3" d="M302.44,47.31c0.28,3.07,1.11,6,2.55,8.73c0.61,1.16,2.32,1.61,3.42,0.9c1.18-0.76,1.55-2.18,0.9-3.42
			c-0.27-0.52-0.53-1.05-0.75-1.59c0.08,0.2,0.17,0.4,0.25,0.6c-0.66-1.58-1.11-3.24-1.35-4.94c0.03,0.22,0.06,0.44,0.09,0.66
			c-0.04-0.31-0.08-0.63-0.1-0.94c-0.06-0.68-0.24-1.27-0.73-1.77c-0.43-0.43-1.15-0.76-1.77-0.73
			C303.69,44.86,302.31,45.91,302.44,47.31L302.44,47.31z"/>
	</g>
</g>
<g>
	<g>
		<path class="st3" d="M310.36,47.37c0.47,2.21,0.95,4.41,1.42,6.62c0.27,1.28,1.84,2.15,3.08,1.75c1.35-0.44,2.04-1.7,1.75-3.08
			c-0.47-2.21-0.95-4.41-1.42-6.62c-0.27-1.28-1.84-2.15-3.08-1.75C310.76,44.73,310.07,46,310.36,47.37L310.36,47.37z"/>
	</g>
</g>
<g>
	<g>
		<path class="st3" d="M301.7,59.4c4.5,0,9,0,13.5,0c1.31,0,2.56-1.15,2.5-2.5c-0.06-1.35-1.1-2.5-2.5-2.5c-4.5,0-9,0-13.5,0
			c-1.31,0-2.56,1.15-2.5,2.5C299.26,58.25,300.3,59.4,301.7,59.4L301.7,59.4z"/>
	</g>
</g>
<g>
	<g>
		<path class="st3" d="M297.2,67.29c8.4,0.36,16.8,0.53,25.2,0.51c3.22-0.01,3.22-5.01,0-5c-8.4,0.02-16.81-0.15-25.2-0.51
			C293.98,62.15,293.99,67.15,297.2,67.29L297.2,67.29z"/>
	</g>
</g>
<g>
	<g>
		<path class="st3" d="M331.23,38c0.33,6.41,0.2,12.82-0.39,19.21c-0.12,1.35,1.24,2.5,2.5,2.5c1.45,0,2.38-1.15,2.5-2.5
			c0.59-6.39,0.72-12.8,0.39-19.21c-0.07-1.35-1.1-2.5-2.5-2.5C332.43,35.5,331.16,36.65,331.23,38L331.23,38z"/>
	</g>
</g>
<g>
	<g>
		<path class="st3" d="M331.3,63.2c0,0.3,0,0.6,0,0.9c-0.01,0.34,0.06,0.67,0.22,0.96c0.1,0.31,0.27,0.58,0.52,0.8
			c0.23,0.24,0.49,0.42,0.8,0.52c0.3,0.16,0.62,0.23,0.96,0.22c0.22-0.03,0.44-0.06,0.66-0.09c0.42-0.12,0.79-0.33,1.1-0.64
			c0.13-0.17,0.26-0.34,0.39-0.51c0.23-0.39,0.34-0.81,0.34-1.26c0-0.3,0-0.6,0-0.9c0.01-0.34-0.06-0.67-0.22-0.96
			c-0.1-0.31-0.27-0.58-0.52-0.8c-0.23-0.24-0.49-0.42-0.8-0.52c-0.3-0.16-0.62-0.23-0.96-0.22c-0.22,0.03-0.44,0.06-0.66,0.09
			c-0.42,0.12-0.79,0.33-1.1,0.64c-0.13,0.17-0.26,0.34-0.39,0.51C331.42,62.33,331.3,62.75,331.3,63.2L331.3,63.2z"/>
	</g>
</g>
<g>
	<g>
		<path class="st3" d="M341.19,40.4c0.39,5.85-0.5,11.55-2.64,17.02c-0.49,1.26,0.54,2.74,1.75,3.08c1.42,0.39,2.58-0.48,3.08-1.75
			c2.27-5.8,3.23-12.13,2.82-18.35c-0.09-1.35-1.08-2.5-2.5-2.5C342.41,37.9,341.1,39.05,341.19,40.4L341.19,40.4z"/>
	</g>
</g>
<g>
	<g>
		<path class="st3" d="M339.83,61.73c-0.1,0.1-0.2,0.2-0.3,0.3c-0.24,0.23-0.42,0.49-0.52,0.8c-0.16,0.3-0.23,0.62-0.22,0.96
			c-0.01,0.34,0.06,0.67,0.22,0.96c0.1,0.31,0.27,0.58,0.52,0.8c0.17,0.13,0.34,0.26,0.51,0.39c0.39,0.23,0.81,0.34,1.26,0.34
			c0.22-0.03,0.44-0.06,0.66-0.09c0.42-0.12,0.79-0.33,1.1-0.64c0.1-0.1,0.2-0.2,0.3-0.3c0.24-0.23,0.42-0.49,0.52-0.8
			c0.16-0.3,0.23-0.62,0.22-0.96c0.01-0.34-0.06-0.67-0.22-0.96c-0.1-0.31-0.27-0.58-0.52-0.8c-0.17-0.13-0.34-0.26-0.51-0.39
			c-0.39-0.23-0.81-0.34-1.26-0.34c-0.22,0.03-0.44,0.06-0.66,0.09C340.51,61.21,340.14,61.42,339.83,61.73L339.83,61.73z"/>
	</g>
</g>
<g>
	<g>
		<path class="st3" d="M36.39,57.51c-1.96-0.27-3.93-0.46-5.91-0.51c-0.92-0.02-1.85-0.01-2.77,0.03c-1,0.04-2.07,0.08-2.94,0.64
			c-1.63,1.06-2.12,3.17-1.66,4.97c0.47,1.82,1.77,3.29,3.06,4.6c1.42,1.45,2.98,2.76,4.53,4.08c0.75,0.63,1.93,0.79,2.65,0
			c0.64-0.7,0.8-1.97,0-2.65c-1.5-1.27-3-2.54-4.38-3.93c-0.33-0.33-0.65-0.66-0.96-1c-0.17-0.19-0.33-0.37-0.49-0.57
			c0.18,0.22-0.22-0.32-0.26-0.37c-0.1-0.16-0.2-0.31-0.28-0.48c-0.06-0.11-0.11-0.22-0.16-0.33c0.07,0.17,0.07,0.14-0.01-0.07
			c-0.04-0.17-0.09-0.33-0.13-0.5c0.11,0.47,0.02-0.12,0.01-0.24c-0.02-0.38-0.07,0.31,0.03-0.16c0.1-0.45-0.12,0.14,0.05-0.15
			c0.11-0.17,0.1-0.16-0.05,0.04c0.15-0.14,0.13-0.14-0.06,0.02c0.15-0.08,0.16-0.1,0.04-0.05c-0.13,0.05-0.1,0.04,0.09-0.02
			c0.22-0.04,0.23-0.05,0.03-0.02c0.12-0.01,0.24-0.02,0.35-0.02c0.25-0.01,0.5-0.02,0.74-0.03c0.53-0.02,1.06-0.03,1.6-0.03
			c0.99,0,1.99,0.03,2.98,0.1c0.5,0.03,0.99,0.07,1.49,0.12c0.28,0.03,0.57,0.06,0.85,0.09c0.14,0.02,0.28,0.03,0.42,0.05
			c-0.15-0.02-0.1-0.02,0.13,0.02c0.97,0.13,2.06-0.23,2.31-1.31C37.9,58.93,37.43,57.66,36.39,57.51L36.39,57.51z"/>
	</g>
</g>
<g>
	<g>
		<path class="st3" d="M92.64,62.25c1.72-0.01,3.44-0.02,5.16-0.03c0.23,0.02,0.24,0.01,0.04-0.01c0.06,0.02,0.11,0.03,0.17,0.05
			c-0.19-0.1-0.32-0.17-0.43-0.36c0.2,0.34-0.08-0.35,0.02,0.01c0.04,0.2,0.04,0.17-0.01-0.11c0,0.07,0.01,0.14,0,0.2
			c0,0.07,0,0.14-0.01,0.21c0.04-0.24,0.04-0.29,0.01-0.15c-0.07,0.12-0.1,0.34-0.14,0.48c0.08-0.28,0.07-0.14-0.04,0.06
			c-0.08,0.16-0.18,0.32-0.27,0.47c-0.1,0.15-0.2,0.3-0.3,0.45c-0.33,0.47,0.22-0.25-0.15,0.19c-0.23,0.28-0.47,0.55-0.72,0.81
			c-0.55,0.58-1.14,1.11-1.73,1.65c-1.32,1.21-2.64,2.42-3.96,3.63c-0.72,0.66-0.72,1.99,0,2.65c0.77,0.71,1.88,0.71,2.65,0
			c1.55-1.42,3.11-2.83,4.65-4.27c1.38-1.28,2.75-2.72,3.43-4.51c0.73-1.92,0.16-4.38-2.02-5.01c-1.02-0.3-2.19-0.17-3.24-0.17
			c-1.04,0.01-2.08,0.01-3.13,0.02c-0.98,0.01-1.92,0.86-1.88,1.88C90.81,61.38,91.59,62.25,92.64,62.25L92.64,62.25z"/>
	</g>
</g>
<g>
	<g>
		<path class="st3" d="M64.27,62.25c-0.84-1.36-1.9-2.49-3.2-3.43c-1.14-0.82-2.85-1.82-4.3-1.51c-1.82,0.39-2.4,2.24-2.71,3.86
			c-0.3,1.53-0.53,3.37-0.1,4.91c0.22,0.77,0.69,1.53,1.41,1.93c0.94,0.52,1.93,0.35,2.88-0.02c1.56-0.62,3.13-1.23,4.68-1.87
			c1.48-0.62,2.76-1.34,3.95-2.42c0.39-0.36,0.82-0.78,1.18-1c0.25-0.16,0.31-0.2,0.51-0.23c-0.09,0.02,0.2,0.04,0.27,0.08
			c0.01,0.01,0.28,0.24,0.29,0.25c0.23,0.28,0.34,0.61,0.43,0.96c0.09,0.35,0.14,0.7,0.16,1.07c0.01,0.19,0.03,0.38,0.04,0.58
			c0.01,0.08,0.01,0.16,0.01,0.25c0,0.5,0.24,0.21,0.73-0.87c-0.24-0.07-0.72,0.07-0.97,0.06c-0.35-0.01-0.71-0.05-1.03-0.19
			c-0.38-0.17-0.67-0.53-0.68-0.66c-0.11-1.01-0.78-1.88-1.88-1.88c-0.93,0-1.99,0.86-1.88,1.88c0.4,3.62,4.29,5.4,7.61,4.35
			c2.13-0.68,1.91-2.95,1.65-4.73c-0.25-1.67-1-3.22-2.43-4.18c-1.38-0.92-3.12-0.87-4.54-0.08c-1.16,0.65-1.97,1.75-3.08,2.45
			c-1.27,0.8-2.73,1.27-4.11,1.82c-0.44,0.18-0.88,0.35-1.32,0.53c-0.26,0.1-0.93,0.23-1.11,0.44c0,0.01,0.01,0.01,0.01,0.02
			c0.13,0.28,0.4,0.42,0.81,0.43c0.01,0.01,0.01,0.02,0.02,0.03c0.05,0.09,0.04,0.03-0.03-0.18c-0.01,0.06,0.02,0.57,0-0.22
			c-0.01-0.25-0.01-0.5-0.01-0.75c0.01-0.89,0.13-1.75,0.36-2.61c0.03-0.11,0.17-0.44,0.17-0.57c-0.01-0.28,0.27-0.16-0.22,0.13
			c-0.1,0.03-0.2,0.05-0.31,0.08c-0.38,0.03-0.41,0.08-0.09,0.15c0.09,0.06,0.25,0.11,0.36,0.16c1.36,0.64,2.47,1.64,3.25,2.92
			C62.3,66.2,65.54,64.31,64.27,62.25L64.27,62.25z"/>
	</g>
</g>
<g>
	<g>
		<path class="st3" d="M64.16,61.42c-1.01-0.79-2.03-1.4-3.22-1.88c-1.15-0.47-2.51-0.83-3.74-0.48c-1.58,0.45-2.71,2.08-2.27,3.73
			c0.37,1.36,1.8,2.19,3.16,2.14c0.75-0.03,1.44-0.26,2.07-0.66c0.48-0.29,0.9-0.66,1.39-0.93c0.86-0.47,1.21-1.73,0.67-2.57
			c-0.56-0.87-1.64-1.18-2.57-0.67c-0.65,0.36-1.2,0.88-1.88,1.18c0.15-0.06,0.3-0.13,0.45-0.19c-0.15,0.06-0.29,0.1-0.45,0.13
			c0.17-0.02,0.33-0.04,0.5-0.07c-0.18,0.02-0.35,0.02-0.52,0c0.17,0.02,0.33,0.04,0.5,0.07c-0.15-0.02-0.28-0.06-0.42-0.12
			c0.15,0.06,0.3,0.13,0.45,0.19c-0.09-0.04-0.16-0.09-0.24-0.14c0.13,0.1,0.25,0.2,0.38,0.29c-0.07-0.06-0.14-0.12-0.19-0.19
			c0.1,0.13,0.2,0.25,0.29,0.38c-0.05-0.08-0.1-0.15-0.13-0.24c0.06,0.15,0.13,0.3,0.19,0.45c-0.03-0.07-0.04-0.14-0.05-0.22
			c0.02,0.17,0.04,0.33,0.07,0.5c-0.01-0.09,0-0.16,0.01-0.25c-0.02,0.17-0.04,0.33-0.07,0.5c0.02-0.08,0.04-0.16,0.07-0.24
			c-0.06,0.15-0.13,0.3-0.19,0.45c0.05-0.11,0.11-0.2,0.18-0.29c-0.1,0.13-0.2,0.25-0.29,0.38c0.08-0.09,0.16-0.17,0.25-0.24
			c-0.13,0.1-0.25,0.2-0.38,0.29c0.1-0.07,0.19-0.13,0.3-0.18c-0.15,0.06-0.3,0.13-0.45,0.19c0.13-0.05,0.26-0.08,0.39-0.11
			c-0.17,0.02-0.33,0.04-0.5,0.07c0.25-0.03,0.5-0.03,0.75,0c-0.17-0.02-0.33-0.04-0.5-0.07c0.66,0.1,1.31,0.32,1.93,0.58
			c-0.15-0.06-0.3-0.13-0.45-0.19c0.77,0.34,1.5,0.76,2.17,1.28c-0.13-0.1-0.25-0.2-0.38-0.29c0.03,0.02,0.06,0.04,0.08,0.07
			c0.41,0.32,0.79,0.55,1.33,0.55c0.46,0,1.01-0.2,1.33-0.55c0.33-0.36,0.57-0.83,0.55-1.33C64.69,62.28,64.54,61.72,64.16,61.42
			L64.16,61.42z"/>
	</g>
</g>
<g>
	<g>
		<path class="st3" d="M53.93,32.9c0.64,0.94,1.61,1.65,2.72,1.91c0.32,0.08,0.69-0.1,0.77-0.44c0.07-0.32-0.1-0.69-0.44-0.77
			c-0.11-0.03-0.22-0.06-0.33-0.09c-0.06-0.02-0.11-0.04-0.17-0.06c-0.03-0.01-0.06-0.02-0.08-0.03c0.02,0.01,0.13,0.06,0.05,0.02
			c-0.22-0.1-0.42-0.21-0.62-0.35c-0.05-0.03-0.09-0.06-0.13-0.1c-0.09-0.06,0.08,0.07,0.03,0.02c-0.02-0.02-0.05-0.04-0.07-0.06
			c-0.09-0.07-0.17-0.15-0.26-0.23c-0.08-0.08-0.16-0.17-0.23-0.26c-0.02-0.02-0.04-0.05-0.06-0.07c-0.05-0.06,0.09,0.13,0.02,0.03
			c-0.04-0.05-0.07-0.1-0.1-0.15c-0.18-0.27-0.56-0.42-0.86-0.22C53.88,32.22,53.73,32.61,53.93,32.9L53.93,32.9z"/>
	</g>
</g>
<g>
	<g>
		<path class="st3" d="M84.71,25.05c1.84-0.42,3.22-0.63,5.03-0.76c0.9-0.06,1.79-0.09,2.69-0.09c0.45,0,0.9,0.01,1.35,0.03
			c0.09,0,0.18,0.01,0.27,0.01c-0.45,0.01-0.77-0.25-0.98-0.79c0,0.14,0.08,0.32,0.1,0.46c0.04,0.18,0.07,0.35,0.1,0.53
			c0.08,0.44,0-0.19,0.03,0.22c0.01,0.21,0.03,0.41,0.03,0.62c0,0.1-0.08,0.67,0,0.28c-0.04,0.17-0.07,0.33-0.13,0.5
			c0.12-0.34-0.06,0.08-0.11,0.16c0.2-0.36-0.08,0.06-0.15,0.14c-0.1,0.09-0.07,0.07,0.09-0.05c-0.08,0.06-0.17,0.12-0.26,0.17
			c-0.08,0.05-0.5,0.24-0.11,0.08c-0.14,0.06-0.29,0.11-0.44,0.15c-0.15,0.04-0.3,0.07-0.46,0.1c0.49-0.09-0.3,0-0.41,0
			c-0.81,0-1.33-0.13-2.27-0.33c-0.96-0.21-2.07,0.29-2.31,1.31c-0.22,0.95,0.28,2.08,1.31,2.31c1.74,0.38,3.61,0.74,5.35,0.16
			c1.74-0.58,3.21-1.92,3.52-3.79c0.17-0.98,0.1-1.88-0.05-2.85c-0.16-1.03-0.39-2.03-1.31-2.67c-0.84-0.58-1.99-0.51-2.97-0.52
			c-0.86-0.01-1.73,0.01-2.59,0.07c-2.13,0.13-4.25,0.44-6.33,0.91c-0.96,0.22-1.61,1.37-1.31,2.31
			C82.72,24.75,83.68,25.29,84.71,25.05L84.71,25.05z"/>
	</g>
</g>
<g>
	<g>
		<path class="st3" d="M53.33,18.62c-1.3-1.09-2.67-2.12-4.1-3.04c-1.36-0.87-2.82-1.81-4.35-2.35c-1.06-0.37-2.34-0.17-3.11,0.69
			c-0.64,0.7-0.86,1.63-0.99,2.54c-0.19,1.44-0.07,2.93,0.45,4.3c0.67,1.75,1.74,3.17,3.24,4.28c0.79,0.59,2.13,0.16,2.57-0.67
			c0.52-0.98,0.17-1.94-0.67-2.57c0.41,0.31-0.06-0.06-0.14-0.13c-0.13-0.12-0.26-0.24-0.38-0.37c-0.11-0.11-0.29-0.26-0.35-0.4
			c0.16,0.2,0.17,0.22,0.05,0.06c-0.05-0.07-0.1-0.15-0.15-0.22c-0.17-0.26-0.33-0.53-0.47-0.81c-0.04-0.08-0.08-0.16-0.11-0.24
			c0.1,0.24,0.11,0.27,0.04,0.08c-0.06-0.17-0.12-0.34-0.17-0.51c-0.09-0.3-0.15-0.6-0.21-0.91c-0.03-0.21-0.03-0.18,0.01,0.1
			c-0.01-0.09-0.02-0.18-0.02-0.27c-0.01-0.18-0.02-0.36-0.02-0.53c0-0.18,0.01-0.36,0.02-0.53c0.01-0.07,0.01-0.13,0.02-0.2
			c0.02-0.14,0.01-0.09-0.02,0.17c-0.04-0.1,0.08-0.42,0.11-0.52c0.03-0.13,0.25-0.64,0.02-0.15c0.1-0.17,0.08-0.14-0.08,0.08
			c-0.21,0.21-0.45,0.32-0.73,0.32c0.21,0.01,0.18,0-0.09-0.01c0.09,0.02,0.18,0.05,0.27,0.09c-0.06-0.03-0.12-0.05-0.18-0.08
			c0.09,0.04,0.18,0.09,0.27,0.13c0.2,0.1,0.39,0.2,0.59,0.3c0.73,0.39,1.45,0.8,2.15,1.23c0.7,0.43,1.39,0.89,2.06,1.37
			c0.18,0.13,0.36,0.26,0.53,0.39c0.06,0.04,0.6,0.46,0.28,0.21c0.35,0.27,0.69,0.55,1.03,0.83c0.75,0.63,1.93,0.79,2.65,0
			C53.97,20.57,54.13,19.29,53.33,18.62L53.33,18.62z"/>
	</g>
</g>
<g>
	<g>
		<path class="st3" d="M86.57,70.71c0.36,3.67,1.3,7.17,2.81,10.53c0.4,0.9,1.78,1.18,2.57,0.67c0.93-0.6,1.11-1.61,0.67-2.57
			c-0.1-0.21-0.19-0.43-0.28-0.64c0.15,0.35-0.07-0.18-0.08-0.2c-0.15-0.38-0.29-0.76-0.43-1.15c-0.26-0.74-0.49-1.49-0.7-2.26
			s-0.38-1.53-0.52-2.3c-0.07-0.4-0.14-0.8-0.2-1.21c0.06,0.4-0.02-0.16-0.02-0.2c-0.03-0.23-0.05-0.46-0.07-0.7
			c-0.1-0.97-0.79-1.92-1.88-1.88C87.51,68.88,86.47,69.67,86.57,70.71L86.57,70.71z"/>
	</g>
</g>
<g>
	<g>
		<path class="st3" d="M31.56,72.3c0.14,0.37,0.21,0.75,0.27,1.14c-0.02-0.17-0.04-0.33-0.07-0.5c0.08,0.6,0.13,1.2,0.22,1.8
			c0.08,0.53,0.26,1.02,0.49,1.51c0.46,1,1.42,1.9,2.53,2.11c0.5,0.1,0.99,0.08,1.44-0.19c0.39-0.23,0.76-0.67,0.86-1.12
			c0.11-0.48,0.09-1.02-0.19-1.44c-0.25-0.39-0.65-0.77-1.12-0.86c-0.11-0.02-0.21-0.05-0.31-0.09c0.15,0.06,0.3,0.13,0.45,0.19
			c-0.14-0.06-0.26-0.13-0.38-0.22c0.13,0.1,0.25,0.2,0.38,0.29c-0.14-0.11-0.26-0.23-0.36-0.37c0.1,0.13,0.2,0.25,0.29,0.38
			c-0.15-0.2-0.27-0.41-0.37-0.64c0.06,0.15,0.13,0.3,0.19,0.45c-0.16-0.39-0.25-0.79-0.3-1.21c0.02,0.17,0.04,0.33,0.07,0.5
			c-0.12-0.91-0.13-1.86-0.46-2.73c-0.17-0.47-0.42-0.86-0.86-1.12c-0.4-0.24-0.99-0.33-1.44-0.19c-0.45,0.15-0.89,0.43-1.12,0.86
			C31.52,71.28,31.39,71.83,31.56,72.3L31.56,72.3z"/>
	</g>
</g>
<g>
	<g>
		<path class="st3" d="M22.12,78.96c27.53-1.47,55.15-1,82.61,1.41c7.68,0.67,15.35,1.5,23,2.48c1.01,0.13,1.88-0.95,1.88-1.88
			c0-1.12-0.87-1.75-1.88-1.88c-27.34-3.49-54.93-5.06-82.49-4.67c-7.71,0.11-15.42,0.37-23.12,0.78
			C19.72,75.34,19.71,79.09,22.12,78.96L22.12,78.96z"/>
	</g>
</g>
<g>
	<g>
		<path class="st3" d="M129.5,82.78c0.42,0,0.84,0,1.27,0c-0.6-0.46-1.21-0.92-1.81-1.38c0.04,0.14-0.61,0.93-0.7,1.07
			c-0.29,0.43-0.59,0.87-0.9,1.29c-0.62,0.87-1.25,1.72-1.92,2.56c-1.38,1.74-2.84,3.41-4.37,5.01c-3.04,3.17-6.38,6.05-9.97,8.58
			c-0.83,0.58-1.21,1.64-0.67,2.57c0.48,0.82,1.73,1.26,2.57,0.67c4.14-2.92,7.99-6.23,11.45-9.93c1.7-1.82,3.29-3.74,4.81-5.73
			c0.78-1.02,1.53-2.06,2.25-3.12c0.83-1.23,1.48-2.44,1.08-3.96c-0.21-0.8-0.99-1.37-1.81-1.38c-0.42,0-0.84,0-1.27,0
			C127.09,79.02,127.08,82.77,129.5,82.78L129.5,82.78z"/>
	</g>
</g>
<g>
	<g>
		<path class="st3" d="M23.34,74.56c-2.83-0.72-6.29-0.94-7.96,2.01c-1.62,2.85,1.16,5.72,2.48,8.1c2.97,5.37,5.02,11.18,6.18,17.2
			c0.15,0.79,1.03,1.39,1.81,1.38c23.86-0.35,47.73-0.27,71.6,0.26c6.79,0.15,13.59,0.34,20.38,0.56c2.41,0.08,2.41-3.67,0-3.75
			c-23.85-0.78-47.72-1.12-71.59-1.02c-6.8,0.03-13.59,0.1-20.39,0.2c0.6,0.46,1.21,0.92,1.81,1.38c-0.95-4.9-2.49-9.65-4.58-14.18
			c-1.01-2.19-2.15-4.32-3.42-6.37c-0.36-0.59-1.49-1.6-0.74-2.22c0.88-0.73,2.46-0.16,3.43,0.08
			C24.68,78.77,25.68,75.15,23.34,74.56L23.34,74.56z"/>
	</g>
</g>
<g>
	<g>
		<path class="st3" d="M151.71,90.85c0.84,0.14,1.88,0.34,2.56,0.6c0,0,0.39,0.19,0.51,0.26c0.06,0.03,0.49,0.34,0.23,0.13
			c0.14,0.11,0.26,0.25,0.39,0.37c0.14,0.17,0.16,0.18,0.04,0.04c0.07,0.1,0.13,0.2,0.19,0.3c0.2,0.28,0-0.16,0.09,0.19
			c0.03,0.12,0.04,0.51,0.06,0.18c0.01,0.12,0,0.23-0.01,0.35c0.03-0.19,0.02-0.21-0.01-0.08c-0.02,0.08-0.04,0.16-0.07,0.23
			c0.09-0.2,0.08-0.2-0.02-0.01c-0.19,0.32,0.2-0.14-0.09,0.14c-0.12,0.11-0.23,0.24-0.36,0.34c0.31-0.24-0.26,0.13-0.32,0.17
			c-0.32,0.2,0.21-0.04-0.18,0.08c-0.79,0.26-1.42,0.27-2.33,0.22c-0.94-0.05-1.88-0.17-2.82-0.17c-1.87,0.01-3.8,0.51-5.12,1.9
			c-0.68,0.71-0.76,1.96,0,2.65c0.73,0.67,1.93,0.76,2.65,0c0.07-0.07,0.57-0.45,0.27-0.26c0.06-0.04,0.66-0.36,0.3-0.2
			c0.21-0.09,0.44-0.15,0.66-0.21c0.07-0.02,0.77-0.13,0.36-0.08c1.01-0.12,2.02,0,3.03,0.07c2.26,0.17,4.52-0.06,6.28-1.64
			c1.74-1.56,1.97-4.17,0.68-6.07c-1.38-2.03-3.66-2.73-5.96-3.12c-0.96-0.16-2.07,0.26-2.31,1.31
			C150.2,89.46,150.68,90.68,151.71,90.85L151.71,90.85z"/>
	</g>
</g>
<g>
	<g>
		<path class="st3" d="M123.09,100.6c2.3,0.16,4.62,0.1,6.91-0.19c0.52-0.06,0.94-0.17,1.33-0.55c0.33-0.33,0.57-0.86,0.55-1.33
			c-0.02-0.48-0.18-0.99-0.55-1.33c-0.34-0.31-0.85-0.61-1.33-0.55c-2.29,0.29-4.6,0.35-6.91,0.19c-0.98-0.07-1.92,0.91-1.88,1.88
			C121.26,99.8,122.04,100.52,123.09,100.6L123.09,100.6z"/>
	</g>
</g>
<g>
	<g>
		<path class="st3" d="M147.89,104.49c2.69-0.44,5.39-0.88,8.08-1.32c0.97-0.16,1.6-1.41,1.31-2.31c-0.34-1.05-1.27-1.48-2.31-1.31
			c-2.69,0.44-5.39,0.88-8.08,1.32c-0.97,0.16-1.6,1.41-1.31,2.31C145.92,104.23,146.85,104.66,147.89,104.49L147.89,104.49z"/>
	</g>
</g>
<g>
	<g>
		<path class="st3" d="M11.48,113.07c0,43.77,0,87.53,0,131.3c0,43.54,0,87.09,0,130.63c0,24.56,0,49.13,0,73.69
			c0,2.41,3.75,2.42,3.75,0c0-43.77,0-87.53,0-131.3c0-43.54,0-87.09,0-130.63c0-24.56,0-49.13,0-73.69
			C15.23,110.66,11.48,110.66,11.48,113.07L11.48,113.07z"/>
	</g>
</g>
<g>
	<g>
		<path class="st3" d="M371.19,113.07c0,43.77,0,87.53,0,131.3c0,43.54,0,87.09,0,130.63c0,24.56,0,49.13,0,73.69
			c0,2.41,3.75,2.42,3.75,0c0-43.77,0-87.53,0-131.3c0-43.54,0-87.09,0-130.63c0-24.56,0-49.13,0-73.69
			C374.94,110.66,371.19,110.66,371.19,113.07L371.19,113.07z"/>
	</g>
</g>
<g>
	<g>
		<path class="st3" d="M101.4,113.07c0,43.77,0,87.53,0,131.3c0,43.54,0,87.09,0,130.63c0,24.56,0,49.13,0,73.69
			c0,2.41,3.75,2.42,3.75,0c0-43.77,0-87.53,0-131.3c0-43.54,0-87.09,0-130.63c0-24.56,0-49.13,0-73.69
			C105.15,110.66,101.4,110.66,101.4,113.07L101.4,113.07z"/>
	</g>
</g>
<g>
	<g>
		<path class="st3" d="M191.33,113.07c0,43.77,0,87.53,0,131.3c0,43.54,0,87.09,0,130.63c0,24.56,0,49.13,0,73.69
			c0,2.41,3.75,2.42,3.75,0c0-43.77,0-87.53,0-131.3c0-43.54,0-87.09,0-130.63c0-24.56,0-49.13,0-73.69
			C195.08,110.66,191.33,110.66,191.33,113.07L191.33,113.07z"/>
	</g>
</g>
<g>
	<g>
		<path class="st3" d="M281.26,113.07c0,43.77,0,87.53,0,131.3c0,43.54,0,87.09,0,130.63c0,24.56,0,49.13,0,73.69
			c0,2.41,3.75,2.42,3.75,0c0-43.77,0-87.53,0-131.3c0-43.54,0-87.09,0-130.63c0-24.56,0-49.13,0-73.69
			C285.01,110.66,281.26,110.66,281.26,113.07L281.26,113.07z"/>
	</g>
</g>
<g>
	<g>
		<path class="st3" d="M13.35,113.75c46.91,0,93.82,0,140.73,0c46.67,0,93.34,0,140.01,0c26.33,0,52.65,0,78.98,0
			c2.41,0,2.42-3.75,0-3.75c-1.7,0-3.41,0-5.11,0c-2.41,0-2.42,3.75,0,3.75c1.7,0,3.41,0,5.11,0c0-1.25,0-2.5,0-3.75
			c-46.91,0-93.82,0-140.73,0c-46.67,0-93.34,0-140.01,0c-26.33,0-52.65,0-78.98,0C10.94,110,10.93,113.75,13.35,113.75
			L13.35,113.75z"/>
	</g>
</g>
<g>
	<g>
		<path class="st3" d="M13.35,197.96c46.91,0,93.82,0,140.73,0c46.67,0,93.34,0,140.01,0c26.33,0,52.65,0,78.98,0
			c2.41,0,2.42-3.75,0-3.75c-1.7,0-3.41,0-5.11,0c-2.41,0-2.42,3.75,0,3.75c1.7,0,3.41,0,5.11,0c0-1.25,0-2.5,0-3.75
			c-46.91,0-93.82,0-140.73,0c-46.67,0-93.34,0-140.01,0c-26.33,0-52.65,0-78.98,0C10.94,194.21,10.93,197.96,13.35,197.96
			L13.35,197.96z"/>
	</g>
</g>
<g>
	<g>
		<path class="st3" d="M13.35,282.16c46.91,0,93.82,0,140.73,0c46.67,0,93.34,0,140.01,0c26.33,0,52.65,0,78.98,0
			c0-1.25,0-2.5,0-3.75c-1.7,0-3.41,0-5.11,0c-2.41,0-2.42,3.75,0,3.75c1.7,0,3.41,0,5.11,0c2.41,0,2.42-3.75,0-3.75
			c-46.91,0-93.82,0-140.73,0c-46.67,0-93.34,0-140.01,0c-26.33,0-52.65,0-78.98,0C10.94,278.41,10.93,282.16,13.35,282.16
			L13.35,282.16z"/>
	</g>
</g>
<g>
	<g>
		<path class="st3" d="M13.35,366.37c46.91,0,93.82,0,140.73,0c46.67,0,93.34,0,140.01,0c26.33,0,52.65,0,78.98,0
			c2.41,0,2.42-3.75,0-3.75c-1.7,0-3.41,0-5.11,0c-2.41,0-2.42,3.75,0,3.75c1.7,0,3.41,0,5.11,0c0-1.25,0-2.5,0-3.75
			c-46.91,0-93.82,0-140.73,0c-46.67,0-93.34,0-140.01,0c-26.33,0-52.65,0-78.98,0C10.94,362.62,10.93,366.37,13.35,366.37
			L13.35,366.37z"/>
	</g>
</g>
<g>
	<g>
		<path class="st3" d="M13.35,450.58c46.91,0,93.82,0,140.73,0c46.67,0,93.34,0,140.01,0c26.33,0,52.65,0,78.98,0
			c2.41,0,2.42-3.75,0-3.75c-1.7,0-3.41,0-5.11,0c-2.41,0-2.42,3.75,0,3.75c1.7,0,3.41,0,5.11,0c0-1.25,0-2.5,0-3.75
			c-46.91,0-93.82,0-140.73,0c-46.67,0-93.34,0-140.01,0c-26.33,0-52.65,0-78.98,0C10.94,446.83,10.93,450.58,13.35,450.58
			L13.35,450.58z"/>
	</g>
</g>
<g>
	<g>
		<path class="st3" d="M27.05,118.31c-1.27,3.99-2.11,8.09-2.62,12.24c-0.12,0.98,0.95,1.92,1.88,1.88
			c1.12-0.05,1.75-0.83,1.88-1.88c0.1-0.82,0.22-1.66,0.38-2.59c0.17-0.99,0.36-1.97,0.57-2.95c0.42-1.92,0.94-3.83,1.53-5.7
			c0.3-0.94-0.35-2.09-1.31-2.31C28.34,116.76,27.37,117.31,27.05,118.31L27.05,118.31z"/>
	</g>
</g>
<g>
	<g>
		<path class="st3" d="M113.26,120.43c0.72-0.45,1.5-0.77,2.31-1.03c0.33-0.11,0.66-0.2,1-0.27c0.06-0.01,0.57-0.09,0.25-0.05
			c0.18-0.02,0.37-0.03,0.55-0.04c0.18,0,0.36,0,0.53,0.02c-0.33-0.03,0.04,0.03,0.16,0.05c0.34,0.06-0.12-0.05,0.07,0.02
			c0.07,0.04,0.14,0.08,0.2,0.12c-0.15-0.12-0.18-0.13-0.08-0.04c0.09,0.1,0.08,0.07-0.04-0.07c0.03,0.05,0.06,0.1,0.09,0.14
			c-0.04-0.23,0.02,0.25,0.02,0.17c0.01,0.41-0.12,0.81-0.24,1.21c-0.91,3-3.02,5.59-5.76,7.18c-1.16,0.67-1.28,2.6,0,3.24
			c2.29,1.14,5,0.29,7.4-0.06c2.51-0.37,5.02-0.75,7.54-1.12c1-0.15,1.55-1.41,1.31-2.31c-0.3-1.07-1.3-1.46-2.31-1.31
			c-2.23,0.33-4.47,0.66-6.7,1c-1.12,0.17-2.23,0.33-3.35,0.5c-0.43,0.06-0.73,0.11-1.09,0.14c-0.39,0.02-0.68,0.04-0.91-0.07
			c0,1.08,0,2.16,0,3.24c2.02-1.17,3.73-2.75,5.11-4.63c1.36-1.85,2.5-4.18,2.72-6.49c0.26-2.7-1.76-4.53-4.32-4.67
			c-2.13-0.11-4.58,0.8-6.36,1.9C109.32,118.46,111.2,121.7,113.26,120.43L113.26,120.43z"/>
	</g>
</g>
<g>
	<g>
		<path class="st3" d="M206.02,120.92c0.2-0.01,0.41-0.02,0.61,0.01c-0.27-0.04,0.32,0.11,0.39,0.13c0.12,0.04,0.13,0.04,0.02,0.01
			c0.09,0.04,0.18,0.09,0.27,0.15c0.09,0.05,0.17,0.11,0.26,0.16c-0.08-0.07-0.08-0.06,0.02,0.02c0.35,0.3,0.41,0.35,0.65,0.81
			c0.11,0.22,0.17,0.41,0.17,0.6c0.01,0.57-0.14,1.02-0.51,1.44c-0.32,0.36-0.39,0.4-0.73,0.59c-0.22,0.12-0.59,0.2-0.8,0.21
			c-2.41,0.09-2.42,3.71,0,3.75c0.24,0.01,0.27,0.01,0.1-0.01c0.2,0.07,0.25,0.08,0.15,0.03c-0.19-0.12,0.48,0.36,0.23,0.14
			c0.01,0.01,0.35,0.4,0.23,0.23c0,0,0.28,0.53,0.18,0.28c0.23,0.57,0.12,1.13-0.29,1.69c-0.4,0.55-1.14,1.01-1.64,1.14
			c-0.09,0.03-0.19,0.05-0.28,0.07c0.18-0.02,0.15-0.01-0.08,0c-0.07,0-0.61-0.03-0.26,0.02c-0.09-0.01-0.53-0.03-0.24-0.04
			c-0.19-0.12-0.21-0.12-0.06,0c-0.15-0.16-0.17-0.17-0.06-0.04c-0.57-0.83-1.65-1.21-2.57-0.67c-0.83,0.48-1.25,1.73-0.67,2.57
			c2.31,3.36,7.03,1.8,9.02-1.04c1.04-1.49,1.3-3.42,0.58-5.1c-0.75-1.76-2.39-2.98-4.33-3.02c0,1.25,0,2.5,0,3.75
			c3.09-0.12,5.93-2.79,5.79-5.99c-0.13-3.14-2.97-5.8-6.13-5.65c-1.01,0.05-1.88,0.83-1.88,1.88
			C204.14,120.02,205,120.97,206.02,120.92L206.02,120.92z"/>
	</g>
</g>
<g>
	<g>
		<path class="st3" d="M291.79,121.14c-0.51,0.66-0.91,1.34-1.04,2.17c-0.13,0.83-0.1,1.67,0.17,2.48c0.52,1.57,1.62,2.87,3.11,3.59
			c1.52,0.73,3.17,0.98,4.84,1.01c0.76,0.01,1.53-0.01,2.26-0.2c1-0.25,1.72-0.81,2.34-1.62c0.27-0.36,0.3-1.03,0.19-1.44
			c-0.12-0.43-0.46-0.91-0.86-1.12c-0.99-0.52-1.93-0.16-2.57,0.67c0.18-0.22,0.2-0.26,0.06-0.11c0.07-0.05,0.13-0.1,0.2-0.15
			c0.01,0.01-0.3,0.16-0.3,0.17c0.25-0.1,0.31-0.13,0.17-0.08c-0.06,0.02-0.11,0.04-0.17,0.05c-0.11,0.03-0.26,0.04-0.36,0.08
			c0.27-0.03,0.34-0.04,0.19-0.03c-0.06,0.01-0.12,0.01-0.19,0.02c-0.12,0.01-0.25,0.01-0.37,0.02c-0.27,0.01-0.54,0-0.82-0.01
			c-0.29-0.01-0.58-0.02-0.86-0.05c-0.14-0.01-0.29-0.01-0.43-0.04c0.23,0.05,0.24,0.03,0-0.01c-0.28-0.05-0.56-0.11-0.83-0.19
			c-0.14-0.04-0.27-0.08-0.4-0.13c-0.07-0.02-0.13-0.05-0.2-0.07c0.21,0.09,0.25,0.11,0.12,0.05c-0.23-0.11-0.46-0.23-0.68-0.37
			c-0.08-0.05-0.16-0.1-0.23-0.16c0.06,0.05,0.12,0.09,0.17,0.14c-0.05,0.01-0.22-0.19-0.26-0.24c-0.07-0.07-0.16-0.21-0.24-0.26
			c0.16,0.21,0.19,0.26,0.11,0.14c-0.04-0.05-0.07-0.1-0.1-0.15c-0.07-0.1-0.13-0.2-0.18-0.31c-0.08-0.16-0.12-0.41-0.01,0.01
			c-0.05-0.23-0.14-0.45-0.2-0.68c-0.09-0.35,0,0.42,0.01,0.04c0-0.11,0-0.23,0-0.34c-0.01-0.35-0.11,0.41-0.01,0.05
			c0.02-0.09,0.05-0.18,0.07-0.27c0.02-0.05,0.03-0.11,0.05-0.16c-0.11,0.26-0.14,0.32-0.07,0.19c0.07-0.07,0.34-0.5-0.01-0.05
			c0.32-0.41,0.55-0.78,0.55-1.33c0-0.46-0.2-1.01-0.55-1.33C293.77,120.52,292.43,120.31,291.79,121.14L291.79,121.14z"/>
	</g>
</g>
<g>
	<g>
		<path class="st3" d="M295.44,120.87c0,3.75,0,7.5,0,11.25c0,0.98,0.86,1.92,1.88,1.88c1.02-0.05,1.88-0.82,1.88-1.88
			c0-3.75,0-7.5,0-11.25c0-0.98-0.86-1.92-1.88-1.88C296.3,119.04,295.44,119.81,295.44,120.87L295.44,120.87z"/>
	</g>
</g>
<g>
	<g>
		<path class="st3" d="M23.31,209.61c3.4,0.42,6.8,0.84,10.19,1.26c0.98,0.12,1.92-0.95,1.88-1.88c-0.05-1.12-0.83-1.75-1.88-1.88
			c-3.4-0.42-6.8-0.84-10.19-1.26c-0.98-0.12-1.92,0.95-1.88,1.88C21.48,208.86,22.26,209.48,23.31,209.61L23.31,209.61z"/>
	</g>
</g>
<g>
	<g>
		<path class="st3" d="M26.26,203.59c-0.22,3.88-1.45,7.59-3.51,10.88c-0.6,0.95-0.06,2.54,1.12,2.75c1.28,0.23,2.46,0.08,3.73-0.15
			c0.67-0.13,1.66-0.47,2.19,0.05c0.35,0.35,0.58,1.08,0.76,1.53c0.27,0.67,0.5,1.35,0.68,2.05c0.07,0.24,0.01,0.53,0.15,0.41
			c0.1-0.09,0.02-0.12-0.03-0.11c-0.52,0.03-0.97-0.09-1.48-0.22c-2.34-0.61-3.33,3.01-1,3.62c1.98,0.52,4.34,0.61,5.64-1.3
			c1.27-1.86,0.14-4.32-0.64-6.17c-0.81-1.9-1.93-3.5-4.12-3.76c-0.92-0.11-1.82,0.04-2.73,0.21c-0.68,0.13-1.45,0.36-2.15,0.23
			c0.37,0.92,0.75,1.84,1.12,2.75c2.42-3.85,3.77-8.24,4.02-12.77C30.14,201.18,26.39,201.18,26.26,203.59L26.26,203.59z"/>
	</g>
</g>
<g>
	<g>
		<path class="st3" d="M115.14,200.75c-1.94,2.55-3.3,5.57-3.92,8.72c-0.58,2.98-0.79,6.4,0.46,9.25c0.51,1.17,1.35,2.28,2.52,2.87
			c1.74,0.87,3.75,0.56,4.62-1.33c1.24-2.72,0-6.26-2.73-7.54c-0.92-0.43-2.02-0.26-2.57,0.67c-0.48,0.81-0.25,2.13,0.67,2.57
			c0.62,0.29,1.02,0.68,1.25,1.3c0.12,0.33,0.16,0.59,0.13,0.89c0.01-0.1-0.09,0.45-0.1,0.44c0.13-0.06,0.27-0.1,0.41-0.12
			c0.47-0.06,0.52-0.12,0.18-0.16c-0.16-0.18-0.31-0.11-0.53-0.38c-0.15-0.19-0.39-0.57-0.51-0.88c-0.29-0.73-0.39-1.46-0.44-2.22
			c-0.26-4.41,1.13-8.68,3.8-12.18c0.61-0.81,0.13-2.1-0.67-2.57C116.74,199.51,115.76,199.94,115.14,200.75L115.14,200.75z"/>
	</g>
</g>
<g>
	<g>
		<path class="st3" d="M199.63,204.2c0,1.9,0,3.8,0,5.7c0,0.98,0.86,1.92,1.88,1.88c1.02-0.05,1.88-0.82,1.88-1.88
			c0-1.9,0-3.8,0-5.7c0-0.98-0.86-1.92-1.88-1.88C200.48,202.37,199.63,203.15,199.63,204.2L199.63,204.2z"/>
	</g>
</g>
<g>
	<g>
		<path class="st3" d="M202.94,207.01c0.01,0,0.47-0.07,0.18-0.03c-0.29,0.04,0.13-0.01,0.19-0.02c0.25-0.02,0.5-0.04,0.75-0.04
			c0.15,0,0.3,0,0.44,0.01c0.06,0,0.48,0.05,0.18,0.01c-0.29-0.04,0.15,0.04,0.17,0.04c0.11,0.03,0.22,0.08,0.33,0.1
			c0.19,0.03-0.29-0.19-0.02,0c0.06,0.04,0.34,0.26,0.14,0.07c-0.21-0.2,0.06,0.09,0.1,0.12c-0.27-0.23-0.1-0.11-0.01,0.03
			c0.06,0.12,0.05,0.1-0.03-0.06c0.01,0.05,0.03,0.11,0.04,0.16c0.06,0.53,0.03-0.37,0.01,0.18c0,0.12-0.01,0.23-0.01,0.35
			c-0.02,0.54,0.08-0.34-0.02,0.2c-0.23,1.25-0.58,2.49-1.03,3.68c-0.07,0.18-0.14,0.36-0.21,0.54c0.07-0.18,0,0.01-0.04,0.09
			c-0.14,0.32-0.29,0.65-0.45,0.96c-0.3,0.61-0.63,1.19-0.99,1.77c-0.51,0.84-0.21,2.1,0.67,2.57c0.91,0.48,2.02,0.22,2.57-0.67
			c0.89-1.46,1.62-3.01,2.19-4.62c0.54-1.5,1.09-3.24,1.05-4.85c-0.04-1.91-1.13-3.46-2.93-4.1c-1.38-0.48-2.9-0.31-4.3-0.08
			c-0.97,0.16-1.6,1.41-1.31,2.31C200.97,206.75,201.9,207.18,202.94,207.01L202.94,207.01z"/>
	</g>
</g>
<g>
	<g>
		<path class="st3" d="M296.76,201.2c-0.75-0.35-1.52-0.57-2.36-0.56c-0.82,0.01-1.56,0.21-2.29,0.55
			c-1.24,0.57-2.27,1.82-2.49,3.18c-0.12,0.76-0.12,1.53,0.12,2.27c0.23,0.72,0.6,1.38,1.13,1.92c0.52,0.53,1.23,0.95,1.96,1.1
			c0.95,0.19,1.83,0.05,2.71-0.35c0.76-0.34,1.38-0.94,1.83-1.63c0.22-0.33,0.38-0.71,0.47-1.1c0.15-0.62,0.12-1.1,0.03-1.71
			c-0.06-0.43-0.51-0.91-0.86-1.12c-0.4-0.24-0.99-0.33-1.44-0.19c-0.45,0.15-0.89,0.43-1.12,0.86c-0.06,0.15-0.13,0.3-0.19,0.45
			c-0.09,0.33-0.09,0.66,0,1c0,0.02,0.01,0.04,0.01,0.06c-0.02-0.17-0.04-0.33-0.07-0.5c0.01,0.15,0.01,0.29,0,0.44
			c0.02-0.17,0.04-0.33,0.07-0.5c-0.03,0.18-0.08,0.36-0.15,0.53c0.06-0.15,0.13-0.3,0.19-0.45c-0.08,0.17-0.17,0.33-0.29,0.48
			c0.1-0.13,0.2-0.25,0.29-0.38c-0.13,0.17-0.28,0.31-0.45,0.45c0.13-0.1,0.25-0.2,0.38-0.29c-0.19,0.14-0.39,0.26-0.6,0.36
			c0.15-0.06,0.3-0.13,0.45-0.19c-0.2,0.08-0.4,0.14-0.61,0.17c0.17-0.02,0.33-0.04,0.5-0.07c-0.19,0.02-0.38,0.02-0.56,0
			c0.17,0.02,0.33,0.04,0.5,0.07c-0.17-0.03-0.33-0.07-0.49-0.13c0.15,0.06,0.3,0.13,0.45,0.19c-0.19-0.08-0.36-0.18-0.52-0.3
			c0.13,0.1,0.25,0.2,0.38,0.29c-0.16-0.13-0.3-0.27-0.42-0.43c0.1,0.13,0.2,0.25,0.29,0.38c-0.15-0.2-0.27-0.41-0.36-0.63
			c0.06,0.15,0.13,0.3,0.19,0.45c-0.1-0.25-0.17-0.51-0.2-0.77c0.02,0.17,0.04,0.33,0.07,0.5c-0.03-0.25-0.03-0.49,0-0.74
			c-0.02,0.17-0.04,0.33-0.07,0.5c0.03-0.22,0.09-0.44,0.18-0.65c-0.06,0.15-0.13,0.3-0.19,0.45c0.09-0.2,0.19-0.38,0.32-0.55
			c-0.1,0.13-0.2,0.25-0.29,0.38c0.15-0.19,0.32-0.35,0.51-0.5c-0.13,0.1-0.25,0.2-0.38,0.29c0.21-0.16,0.44-0.29,0.68-0.39
			c-0.15,0.06-0.3,0.13-0.45,0.19c0.29-0.12,0.58-0.2,0.89-0.24c-0.17,0.02-0.33,0.04-0.5,0.07c0.29-0.03,0.57-0.03,0.86,0
			c-0.17-0.02-0.33-0.04-0.5-0.07c0.29,0.04,0.56,0.11,0.83,0.22c-0.15-0.06-0.3-0.13-0.45-0.19c0.04,0.02,0.08,0.04,0.12,0.05
			c0.47,0.22,0.93,0.33,1.44,0.19c0.43-0.12,0.91-0.46,1.12-0.86c0.23-0.44,0.35-0.96,0.19-1.44
			C297.48,201.88,297.2,201.41,296.76,201.2L296.76,201.2z"/>
	</g>
</g>
<g>
	<g>
		<path class="st3" d="M293.95,207.99c-1.53,1.11-2.96,2.55-3.37,4.47c-0.41,1.93,0.04,3.88,1.32,5.38
			c1.24,1.46,3.24,1.97,5.07,1.68c1.87-0.3,3.31-1.69,3.91-3.45c0.62-1.83,0.17-4.02-0.84-5.63c-0.52-0.83-1.69-1.23-2.57-0.67
			c-0.83,0.54-1.23,1.68-0.67,2.57c0.14,0.23,0.24,0.5,0.39,0.72c-0.22-0.33-0.13-0.31-0.07-0.16c0.02,0.06,0.05,0.13,0.07,0.19
			c0.06,0.16,0.1,0.33,0.14,0.5c0.01,0.05,0.11,0.37,0.08,0.4c-0.01,0.01-0.05-0.52-0.03-0.19c0,0.07,0.01,0.14,0.02,0.2
			c0.01,0.13,0.01,0.27,0,0.4c0,0.07-0.01,0.13-0.01,0.2c-0.02,0.32,0.07-0.38,0.03-0.15c-0.05,0.26-0.12,0.51-0.2,0.76
			c-0.08,0.22,0.18-0.38,0.07-0.18c-0.03,0.06-0.06,0.12-0.09,0.17c-0.03,0.06-0.07,0.11-0.1,0.17c-0.17,0.26,0-0.02,0.09-0.1
			c-0.1,0.09-0.18,0.2-0.27,0.29c-0.04,0.04-0.11,0.09-0.15,0.13c0.21-0.27,0.29-0.21,0.14-0.12c-0.11,0.07-0.23,0.13-0.34,0.2
			c-0.25,0.14,0.15-0.07,0.18-0.07c-0.09,0.02-0.19,0.07-0.28,0.09c-0.03,0.01-0.38,0.08-0.39,0.09c0-0.02,0.51-0.04,0.2-0.03
			c-0.07,0-0.13,0.01-0.2,0.01c-0.13,0-0.27,0-0.4-0.01c-0.16-0.01-0.23-0.09,0.2,0.03c-0.08-0.02-0.17-0.03-0.25-0.05
			c-0.11-0.03-0.23-0.06-0.34-0.09c-0.05-0.02-0.13-0.06-0.19-0.07c0.33,0.05,0.33,0.15,0.17,0.07c-0.12-0.06-0.24-0.12-0.35-0.19
			c-0.05-0.03-0.11-0.09-0.16-0.11c0.33,0.14,0.25,0.2,0.07,0.04c-0.1-0.09-0.19-0.2-0.28-0.3c-0.14-0.15,0.04-0.1,0.1,0.14
			c-0.01-0.05-0.09-0.14-0.11-0.17c-0.07-0.12-0.14-0.24-0.2-0.36c-0.08-0.15-0.01-0.2,0.06,0.17c-0.02-0.08-0.06-0.16-0.09-0.24
			c-0.04-0.13-0.08-0.26-0.11-0.4c-0.02-0.07-0.03-0.14-0.04-0.2c-0.05-0.24,0.04,0.43,0.02,0.19c-0.02-0.29,0.04-0.61,0-0.88
			c0.04,0.34-0.06,0.37-0.02,0.19c0.02-0.1,0.04-0.2,0.06-0.31c0.04-0.15,0.09-0.3,0.14-0.45c0.07-0.23-0.18,0.38-0.06,0.15
			c0.05-0.09,0.09-0.18,0.13-0.26c0.09-0.17,0.2-0.33,0.31-0.49c0.15-0.22,0,0.1-0.08,0.1c0.04,0,0.16-0.19,0.19-0.22
			c0.12-0.13,0.24-0.26,0.37-0.38c0.14-0.14,0.29-0.27,0.44-0.39c0.06-0.05,0.13-0.1,0.18-0.15c-0.06,0.05-0.13,0.1-0.19,0.15
			c0.06-0.05,0.13-0.09,0.19-0.14c0.41-0.29,0.72-0.62,0.86-1.12c0.12-0.45,0.07-1.05-0.19-1.44
			C296.01,207.88,294.8,207.37,293.95,207.99L293.95,207.99z"/>
	</g>
</g>
<g>
	<g>
		<path class="st3" d="M30.08,290.29c0.53-1.34-0.32-2.87-1.53-3.48c-1.02-0.52-2.31-0.51-3.43-0.42c-1.05,0.09-2.12,0.29-3,0.91
			c-1.1,0.77-1.77,2-1.76,3.36c0.03,2.64,2.17,4.34,4.43,5.23c1.29,0.51,2.77,0.37,3.77-0.66c0.34-0.35,0.61-0.76,0.87-1.17
			c0.06-0.09,0.45-0.55,0.14-0.24c0.06-0.07,0.13-0.14,0.21-0.21c-0.19,0.14-0.19,0.17-0.01,0.06c-0.92-0.71-1.84-1.41-2.75-2.12
			c-1,2.94-2.01,5.87-3.01,8.81c-0.33,0.96,0.38,2.05,1.31,2.31c1.03,0.28,1.98-0.35,2.31-1.31c1-2.94,2.01-5.87,3.01-8.81
			c0.24-0.7-0.11-1.55-0.67-1.97c-0.63-0.47-1.38-0.49-2.08-0.15c-0.65,0.32-1.12,0.88-1.51,1.47c-0.14,0.21-0.29,0.43-0.42,0.65
			c0.09-0.16,0.17-0.13,0.02-0.03c-0.34,0.22,0.24-0.08,0.24-0.08c0.01-0.01,0.12,0.01,0.12,0.01c0,0.02-0.46-0.15-0.41-0.13
			c-0.16-0.07-0.54-0.26-0.77-0.4c-0.37-0.22-0.35-0.2-0.57-0.41c-0.03-0.03-0.31-0.32-0.16-0.14c-0.1-0.12-0.17-0.26-0.24-0.4
			c-0.11-0.23,0.04,0.3-0.04-0.17c-0.02-0.13-0.06-0.26-0.02-0.05c-0.1-0.52-0.01,0.15-0.01-0.14c0-0.17-0.09,0.13,0.05-0.15
			c-0.13,0.26-0.03,0.03,0.07-0.06c0.1-0.09,0.08-0.08-0.07,0.05c0.05-0.03,0.09-0.06,0.14-0.08c0.05-0.03,0.09-0.05,0.14-0.08
			c-0.17,0.07-0.2,0.08-0.07,0.03c0.13-0.04,0.27-0.08,0.4-0.12c0.04-0.01,0.5-0.09,0.26-0.06c-0.23,0.03,0.28-0.02,0.27-0.02
			c0.29-0.02,0.58-0.02,0.87-0.02c0.13,0,0.26,0.01,0.39,0.01c0.1,0,0.24,0.03,0.25,0.02c0.12-0.11,0.04,0.11-0.07-0.08
			c-0.07-0.13-0.15-0.26-0.22-0.4c0.08-0.56,0.07-0.69-0.04-0.37c-0.37,0.94,0.41,2.06,1.31,2.31
			C28.84,291.9,29.7,291.24,30.08,290.29L30.08,290.29z"/>
	</g>
</g>
<g>
	<g>
		<path class="st3" d="M113.28,287.65c-2.47,3.8-3.9,8.16-4.3,12.66c-0.09,0.98,0.92,1.92,1.88,1.88c1.09-0.05,1.78-0.83,1.88-1.88
			c0.09-0.99,0.18-1.65,0.42-2.75c0.21-0.97,0.48-1.93,0.81-2.86c0.61-1.76,1.46-3.46,2.56-5.16c0.54-0.82,0.19-2.11-0.67-2.57
			C114.91,286.48,113.85,286.77,113.28,287.65L113.28,287.65z"/>
	</g>
</g>
<g>
	<g>
		<path class="st3" d="M121.19,289.54c-2.81,0.91-5.05,3.25-5.81,6.12c-0.19,0.73-0.32,1.53-0.27,2.28c0.04,0.7,0.26,1.34,0.75,1.85
			c0.48,0.51,1.13,0.72,1.8,0.79c0.87,0.09,1.74-0.25,2.5-0.63c0.64-0.32,1.23-0.76,1.74-1.25c1.32-1.27,2.04-2.92,2.25-4.71
			c0.05-0.44-0.25-1.02-0.55-1.33c-0.33-0.33-0.86-0.57-1.33-0.55c-0.48,0.02-0.99,0.18-1.33,0.55c-0.36,0.39-0.49,0.8-0.55,1.33
			c0-0.02,0.08-0.49,0.02-0.19c-0.01,0.05-0.02,0.1-0.03,0.15c-0.02,0.12-0.05,0.24-0.08,0.36c-0.03,0.12-0.07,0.23-0.11,0.35
			c-0.02,0.05-0.04,0.1-0.05,0.15c-0.09,0.24,0.04-0.11,0.07-0.16c-0.13,0.2-0.22,0.44-0.34,0.65c-0.06,0.1-0.13,0.21-0.2,0.31
			c-0.24,0.33,0.24-0.28-0.03,0.03c-0.16,0.19-0.33,0.36-0.51,0.53c-0.08,0.07-0.16,0.14-0.24,0.2c-0.18,0.15,0.33-0.23,0.13-0.1
			c-0.06,0.04-0.11,0.08-0.17,0.12c-0.2,0.14-0.41,0.26-0.63,0.36c-0.37,0.18,0.32-0.11,0.02,0c-0.13,0.04-0.26,0.08-0.39,0.12
			c-0.06,0.02-0.26,0.04,0.05,0c0.32-0.04,0.08-0.01,0-0.01c-0.01,0-0.14-0.01-0.15,0c0.04-0.06,0.4,0.08,0.45,0.1
			c0.05,0.02,0.09,0.04,0.14,0.06c-0.17-0.11-0.12-0.04,0.16,0.2c0.17,0.17,0.28,0.25,0.33,0.47c0.01,0.05,0.02,0.46,0.02,0.14
			c0-0.08,0-0.15,0-0.23c0-0.12,0.01-0.24,0.02-0.36c0.04-0.41-0.07,0.36-0.01,0.03c0.04-0.24,0.09-0.48,0.16-0.71
			c0.07-0.23,0.17-0.46,0.23-0.69c-0.01,0.02-0.2,0.44-0.07,0.16c0.02-0.05,0.04-0.09,0.07-0.14c0.06-0.13,0.12-0.25,0.19-0.37
			c0.12-0.21,0.25-0.42,0.39-0.62c0.04-0.06,0.26-0.36,0.07-0.1c-0.2,0.26,0.1-0.11,0.15-0.17c0.18-0.21,0.38-0.4,0.59-0.59
			c0.05-0.05,0.43-0.35,0.17-0.15c-0.26,0.2,0.12-0.08,0.19-0.13c0.23-0.15,0.47-0.29,0.72-0.42c0.05-0.02,0.09-0.04,0.14-0.07
			c0.33-0.17-0.32,0.12-0.11,0.04c0.15-0.05,0.29-0.11,0.44-0.16c0.93-0.3,1.63-1.31,1.31-2.31
			C123.19,289.92,122.19,289.22,121.19,289.54L121.19,289.54z"/>
	</g>
</g>
<g>
	<g>
		<path class="st3" d="M200.82,290.1c0.06,1.57,0.05,3.15-0.05,4.72c-0.05,0.77-0.11,1.54-0.2,2.31c-0.02,0.18-0.04,0.37-0.06,0.55
			c-0.01,0.07-0.08,0.57-0.03,0.24c-0.06,0.43-0.13,0.86-0.2,1.28c-0.16,0.96,0.25,2.07,1.31,2.31c0.9,0.21,2.13-0.27,2.31-1.31
			c0.55-3.34,0.8-6.71,0.67-10.1c-0.04-0.98-0.83-1.92-1.88-1.88C201.72,288.27,200.78,289.05,200.82,290.1L200.82,290.1z"/>
	</g>
</g>
<g>
	<g>
		<path class="st3" d="M205.93,290.7c0,2.7,0,5.4,0,8.1c0,0.98,0.86,1.92,1.88,1.88c1.02-0.05,1.88-0.82,1.88-1.88
			c0-2.7,0-5.4,0-8.1c0-0.98-0.86-1.92-1.88-1.88C206.78,288.87,205.93,289.65,205.93,290.7L205.93,290.7z"/>
	</g>
</g>
<g>
	<g>
		<path class="st3" d="M291.58,288.6c-0.1,1.58-0.23,3.16-0.4,4.73c-0.08,0.75-0.17,1.51-0.27,2.26c-0.01,0.05-0.08,0.58-0.03,0.25
			c-0.03,0.19-0.05,0.38-0.08,0.56c-0.06,0.44-0.13,0.88-0.2,1.31c-0.15,0.97,0.24,2.06,1.31,2.31c0.9,0.2,2.15-0.27,2.31-1.31
			c0.52-3.36,0.89-6.73,1.1-10.12c0.06-0.98-0.91-1.92-1.88-1.88C292.39,286.77,291.65,287.55,291.58,288.6L291.58,288.6z"/>
	</g>
</g>
<g>
	<g>
		<path class="st3" d="M300.9,291.27c-0.02,0.13-0.08,0.25-0.17,0.34c-0.11,0.13-0.11,0.14,0,0.03c-0.07,0.06-0.13,0.11-0.2,0.17
			c0.14-0.07,0.13-0.07-0.02,0c-0.16,0.06-0.16,0.07-0.01,0.03c-0.09,0.01-0.18,0.02-0.27,0.03c0.06-0.01,0.12-0.01,0.18,0
			c0.15,0.01,0.08-0.01-0.2-0.04c0.04,0.01,0.08,0.02,0.12,0.02c0.19,0.06,0.16,0.04-0.11-0.07c0.01-0.04,0.35,0.29,0.12,0.05
			c-0.2-0.21,0.08,0.11,0.12,0.15c-0.28-0.3-0.03,0.01,0.03,0.11c0.17,0.3-0.03-0.18,0.01,0.03c0.03,0.12,0.08,0.24,0.11,0.36
			c0.04,0.15,0.06,0.3,0.09,0.45c0.07,0.37-0.01-0.23,0.01,0.03c0.04,0.62,0.09,1.23,0.03,1.85c-0.01,0.17-0.05,0.36,0,0.08
			c-0.03,0.16-0.06,0.33-0.1,0.49c-0.06,0.27-0.15,0.53-0.24,0.79c0.13-0.37-0.06,0.11-0.09,0.16c-0.06,0.12-0.13,0.24-0.21,0.35
			c-0.11,0.17-0.18,0.22-0.01,0.04c-0.1,0.11-0.2,0.22-0.3,0.33c-0.04,0.04-0.34,0.32-0.15,0.15c0.19-0.17-0.12,0.08-0.17,0.12
			c-0.12,0.08-0.26,0.15-0.38,0.22c-0.39,0.22,0.34-0.08-0.09,0.04c-0.12,0.03-0.23,0.07-0.35,0.1c-0.42,0.09,0,0.01,0,0.01
			c0,0.02-0.41,0-0.43,0c-0.4-0.01,0.35,0.08-0.08-0.02c-0.95-0.22-2.08,0.3-2.31,1.31c-0.25,1.08,0.33,1.92,1.31,2.31
			c1.98,0.79,4.13,1.16,6.26,1.15c0.98,0,1.92-0.86,1.88-1.88c-0.05-1.01-0.82-1.88-1.88-1.88c-0.51,0-1.02-0.01-1.52-0.06
			c-0.01,0-0.61-0.07-0.26-0.02c-0.25-0.03-0.5-0.08-0.75-0.13c-0.94-0.18-1.85-0.46-2.73-0.81c-0.33,1.21-0.66,2.41-1,3.62
			c1.97,0.46,4.01-0.22,5.4-1.68c1.39-1.46,1.97-3.48,1.98-5.46c0.01-1.97-0.39-4.2-2.1-5.41c-0.81-0.57-1.84-0.72-2.79-0.53
			c-1.17,0.23-1.9,1.02-2.35,2.08c-0.38,0.91,0.41,2.1,1.31,2.31C299.69,292.83,300.49,292.24,300.9,291.27L300.9,291.27z"/>
	</g>
</g>
<g>
	<g>
		<path class="st3" d="M19.57,373.3c0.15,3.04,0.89,5.96,2.16,8.72c0.41,0.89,1.77,1.18,2.57,0.67c0.92-0.59,1.11-1.61,0.67-2.57
			c-0.08-0.17-0.17-0.34-0.23-0.52c0.16,0.45,0,0-0.03-0.07c-0.12-0.31-0.24-0.62-0.34-0.93c-0.21-0.6-0.39-1.21-0.54-1.83
			c-0.15-0.62-0.26-1.24-0.37-1.87c-0.07-0.43,0.04,0.34-0.01-0.06c-0.02-0.19-0.04-0.37-0.06-0.56c-0.03-0.33-0.05-0.66-0.07-0.99
			c-0.05-0.98-0.83-1.92-1.88-1.88C20.47,371.47,19.52,372.25,19.57,373.3L19.57,373.3z"/>
	</g>
</g>
<g>
	<g>
		<path class="st3" d="M27.63,375.63c0.36-0.21,0.72-0.43,1.09-0.62c0.09-0.05,0.19-0.09,0.28-0.14c0.44-0.22-0.21,0.06,0.05-0.03
			c0.19-0.07,0.39-0.14,0.59-0.2c0.1-0.03,0.2-0.04,0.3-0.07c0.26-0.08-0.31,0.01-0.08,0.01c0.17,0,0.34,0,0.51-0.01
			c0.24-0.01-0.35-0.08-0.12-0.02c0.08,0.02,0.17,0.03,0.25,0.05c0.08,0.02,0.16,0.05,0.24,0.07c0.21,0.05-0.37-0.22-0.05-0.01
			c0.04,0.02,0.18,0.13,0.21,0.13c-0.07,0.01-0.28-0.26-0.09-0.06c0.04,0.04,0.12,0.16,0.17,0.18c-0.06-0.02-0.24-0.3-0.08-0.08
			c0.16,0.22-0.08-0.09-0.05-0.15c-0.01,0.02,0.05,0.18,0.06,0.21c0.08,0.27-0.06-0.13-0.02-0.17c-0.02,0.02,0,0.19,0,0.22
			c0.01,0.28-0.02-0.13,0.03-0.17c-0.02,0.02-0.05,0.18-0.05,0.22c-0.06,0.31,0.16-0.25,0.04-0.09c-0.03,0.05-0.09,0.14-0.11,0.19
			c-0.05,0.17,0.23-0.23,0.1-0.11c-0.05,0.04-0.12,0.11-0.15,0.16c-0.12,0.18,0.28-0.24,0.12-0.09c-0.08,0.07-0.41,0.2,0.1-0.01
			c-0.63,0.26-1.12,0.62-1.31,1.31c-0.16,0.6-0.02,1.41,0.48,1.82c0.67,0.55,1.33,0.82,2.19,0.89c0.46,0.04,0.94,0.01,1.4,0
			c0.17,0.01,0.17,0.01,0-0.01c-0.17-0.03-0.17-0.02-0.01,0.01c0.15,0.05,0.16,0.04,0.01-0.01c-0.14-0.07-0.15-0.06-0.02,0.01
			c-0.07-0.06-0.14-0.11-0.21-0.17c0.1,0.11,0.1,0.09-0.01-0.04c-0.15-0.3-0.03,0.03,0.02,0.06c-0.11-0.29-0.14-0.35-0.07-0.16
			c0.01,0.03,0.02,0.07,0.03,0.1c0.03,0.15,0.03,0.14,0-0.04c-0.02-0.18-0.03-0.19-0.02-0.04c-0.01,0.07-0.01,0.41,0.01,0.08
			c0.02-0.35-0.05,0.06-0.05,0.12c-0.01,0.19,0.21-0.35,0.04-0.1c-0.03,0.05-0.05,0.09-0.09,0.14c-0.08,0.11-0.04,0.06,0.11-0.15
			c0-0.01-0.33,0.37-0.11,0.12c0.17-0.19-0.12,0.07-0.2,0.12c-0.08,0.05-0.2,0.14-0.3,0.15c0.22-0.09,0.26-0.11,0.13-0.06
			c-0.06,0.02-0.13,0.04-0.2,0.06c-0.24,0.07-0.49,0.12-0.74,0.17c-0.24,0.05,0.38-0.03,0.02,0c-0.16,0.01-0.33,0.03-0.49,0.04
			c-0.3,0.02-0.6,0.04-0.91,0.06c-0.74,0.06-1.48,0.14-2.19,0.37c-0.93,0.3-1.63,1.32-1.31,2.31c0.3,0.94,1.3,1.63,2.31,1.31
			c0.18-0.06,0.37-0.11,0.55-0.15c0.09-0.02,0.67-0.09,0.23-0.05c0.33-0.03,0.66-0.06,0.99-0.08c0.76-0.05,1.53-0.11,2.27-0.29
			c1.55-0.38,3-1.4,3.49-2.98c0.46-1.48,0-3.29-1.37-4.13c-0.68-0.41-1.46-0.55-2.24-0.53c-0.28,0-0.56,0.03-0.83,0.02
			c-0.48-0.01,0-0.04,0.02,0.02c-0.08-0.02-0.15-0.04-0.22-0.06c0.17,0.03,0.31,0.11,0.42,0.24c-0.28,1.04-0.55,2.09-0.83,3.13
			c1.27-0.53,2.27-1.49,2.57-2.88c0.29-1.37-0.08-2.84-1.16-3.77c-1.01-0.87-2.38-1.3-3.7-1.14c-1.44,0.17-2.69,0.81-3.93,1.54
			c-0.84,0.5-1.23,1.71-0.67,2.57C25.61,375.81,26.73,376.17,27.63,375.63L27.63,375.63z"/>
	</g>
</g>
<g>
	<g>
		<path class="st3" d="M111.68,372.38c-0.56,2.71-1.13,5.41-1.69,8.12c-0.2,0.96,0.28,2.07,1.31,2.31c0.94,0.21,2.09-0.28,2.31-1.31
			c0.56-2.71,1.13-5.41,1.69-8.12c0.2-0.96-0.28-2.07-1.31-2.31C113.05,370.85,111.89,371.35,111.68,372.38L111.68,372.38z"/>
	</g>
</g>
<g>
	<g>
		<path class="st3" d="M119.05,373.62c-0.37,0.96-0.74,1.93-1.1,2.89c-0.27,0.71-0.45,1.41-0.22,2.16c0.27,0.88,0.99,1.43,1.82,1.73
			c0.42,0.15,0.86,0.22,1.3,0.29c0.63,0.11,1.27,0.19,1.91,0.26c1.05,0.11,2.1,0.15,3.15,0.12c0.98-0.03,1.92-0.84,1.88-1.88
			c-0.04-0.99-0.82-1.9-1.88-1.88c-1.28,0.04-2.56-0.03-3.82-0.2c0.17,0.02,0.33,0.04,0.5,0.07c-0.51-0.07-1.02-0.16-1.52-0.26
			c-0.09-0.02-0.18-0.04-0.26-0.06c-0.08-0.02-0.39-0.14-0.06,0c0.44,0.18-0.25-0.21,0.14,0.07c0.14,0.09,0.25,0.2,0.33,0.35
			c0.12,0.34,0.15,0.41,0.1,0.2c0.02,0.17,0.04,0.33,0.07,0.5c-0.01-0.07-0.01-0.14,0.01-0.21c-0.02,0.17-0.04,0.33-0.07,0.5
			c0.12-0.62,0.43-1.22,0.66-1.81c0.24-0.62,0.47-1.23,0.71-1.85c0.16-0.43,0.03-1.06-0.19-1.44c-0.23-0.39-0.67-0.76-1.12-0.86
			c-0.48-0.11-1.02-0.09-1.44,0.19C119.48,372.78,119.23,373.14,119.05,373.62L119.05,373.62z"/>
	</g>
</g>
<g>
	<g>
		<path class="st3" d="M123.27,374.22c-0.54,3.14-1.29,6.23-2.24,9.27c-0.29,0.94,0.35,2.09,1.31,2.31
			c1.02,0.23,1.99-0.31,2.31-1.31c0.95-3.04,1.7-6.13,2.24-9.27c0.17-0.96-0.26-2.07-1.31-2.31
			C124.67,372.7,123.45,373.18,123.27,374.22L123.27,374.22z"/>
	</g>
</g>
<g>
	<g>
		<path class="st3" d="M199.48,375.11c-0.34,2.78-0.15,5.6,0.46,8.32c0.22,0.96,1.37,1.61,2.31,1.31c1-0.33,1.54-1.28,1.31-2.31
			c-0.13-0.6-0.35-1.28-0.35-1.9c0,0.46,0.01,0.03-0.01-0.09c-0.02-0.17-0.04-0.34-0.05-0.52c-0.03-0.32-0.05-0.64-0.07-0.96
			c-0.06-1.29-0.01-2.58,0.15-3.86c0.05-0.44-0.25-1.02-0.55-1.33c-0.33-0.33-0.86-0.57-1.33-0.55c-0.48,0.02-0.99,0.18-1.33,0.55
			C199.67,374.17,199.55,374.58,199.48,375.11L199.48,375.11z"/>
	</g>
</g>
<g>
	<g>
		<path class="st3" d="M208.02,372.01c-1.53,2.34-2.68,4.95-3.39,7.66c-0.19,0.73,0.08,1.51,0.67,1.97
			c0.54,0.42,1.49,0.59,2.08,0.15c0.1-0.07,0.21-0.13,0.31-0.2c0.2-0.14-0.27,0.1-0.04,0.03c0.22-0.07-0.35,0.02,0.01,0
			c0.23-0.01,0.08,0.03-0.06-0.02c0.43,0.14-0.18-0.15,0.03-0.01c0.21,0.14-0.29-0.3,0.01,0.01c-0.09-0.1-0.16-0.24-0.05-0.04
			c-0.14-0.24,0.02-0.2-0.01,0.01c-0.03,0.25,0-0.34-0.01-0.09c-0.01,0.21,0.16-0.39,0.01-0.02c0.05-0.12,0.11-0.28,0.02-0.07
			c0.08-0.2,0.11-0.15-0.04,0.02c-0.14,0.16,0.22-0.1,0.02-0.03c-0.11,0.04-0.23,0.12-0.34,0.18c0.14-0.08,0.2-0.08,0.02-0.01
			c-0.15,0.05-0.29,0.1-0.44,0.15c-0.93,0.31-1.63,1.31-1.31,2.31c0.3,0.92,1.31,1.64,2.31,1.31c0.98-0.33,1.97-0.72,2.65-1.53
			c0.79-0.94,1.05-2.17,0.7-3.36c-0.69-2.34-3.72-3.37-5.68-1.88c0.92,0.71,1.84,1.41,2.75,2.12c0.16-0.61,0.34-1.21,0.54-1.81
			c0.1-0.3,0.21-0.59,0.32-0.89c0.07-0.18,0.14-0.35,0.21-0.53c-0.1,0.23,0.04-0.07,0.07-0.16c0.53-1.18,1.16-2.31,1.86-3.39
			c0.54-0.82,0.19-2.11-0.67-2.57C209.65,370.85,208.59,371.14,208.02,372.01L208.02,372.01z"/>
	</g>
</g>
<g>
	<g>
		<path class="st3" d="M207.31,376.53c0.2,0.01,0.4,0.04,0.6,0.06c-0.17-0.02-0.33-0.04-0.5-0.07c0.92,0.12,1.81,0.37,2.67,0.73
			c-0.15-0.06-0.3-0.13-0.45-0.19c0.61,0.26,1.2,0.58,1.75,0.95c0.39,0.26,1,0.31,1.44,0.19c0.43-0.12,0.91-0.46,1.12-0.86
			c0.5-0.95,0.2-1.98-0.67-2.57c-1.77-1.19-3.85-1.84-5.97-1.99c-0.46-0.03-1.01,0.23-1.33,0.55c-0.33,0.33-0.57,0.86-0.55,1.33
			c0.02,0.48,0.18,0.99,0.55,1.33C206.37,376.33,206.79,376.5,207.31,376.53L207.31,376.53z"/>
	</g>
</g>
<g>
	<g>
		<path class="st3" d="M289.32,374.4c-0.03,3.71,0.13,7.42,0.48,11.11c0.09,0.97,0.8,1.92,1.88,1.88c0.94-0.04,1.98-0.83,1.88-1.88
			c-0.36-3.69-0.52-7.4-0.48-11.11c0.01-0.98-0.87-1.92-1.88-1.88C290.17,372.57,289.33,373.35,289.32,374.4L289.32,374.4z"/>
	</g>
</g>
<g>
	<g>
		<path class="st3" d="M297.08,371.96c-1.06,1.44-1.81,3.16-2.14,4.92c-0.36,1.91-0.46,4.1,0.4,5.9c0.98,2.05,3.84,2.92,5.55,1.2
			c1.73-1.74,0.56-4.2-0.78-5.72c-0.65-0.74-2-0.71-2.65,0c-0.72,0.79-0.69,1.86,0,2.65c0.05,0.06,0.32,0.43,0.07,0.06
			c0.08,0.12,0.17,0.24,0.25,0.37c0.06,0.09,0.22,0.28,0.21,0.38c0.01-0.18-0.09-0.25-0.01,0.01c0.13,0.42,0.01-0.05,0.03-0.05
			c0.09,0.01-0.1,0.47,0.03-0.01c0.12-0.24,0.14-0.29,0.07-0.17c-0.07,0.12-0.04,0.07,0.09-0.13c0.08-0.09,0.17-0.15,0.29-0.18
			c0.15-0.05,0.15-0.06-0.01-0.01c0.08-0.01,0.16-0.02,0.25-0.03c-0.17-0.01-0.17,0-0.01,0.02c0.16,0.03,0.16,0.02-0.01-0.01
			c-0.16-0.05-0.17-0.06-0.02,0c0.14,0.06,0.14,0.05-0.01-0.03c0.06,0.04,0.11,0.09,0.17,0.13c-0.17-0.01-0.22-0.37-0.07-0.06
			c-0.05-0.1-0.19-0.48-0.07-0.08c-0.04-0.14-0.09-0.28-0.13-0.43c-0.03-0.12-0.05-0.24-0.07-0.37c-0.02-0.14-0.02-0.1,0.02,0.13
			c-0.01-0.08-0.02-0.15-0.02-0.23c-0.05-0.6-0.05-1.2,0.01-1.8c0.01-0.08,0.01-0.16,0.02-0.24c-0.03,0.2-0.03,0.23-0.01,0.09
			c0.02-0.13,0.04-0.27,0.07-0.4c0.06-0.32,0.14-0.64,0.23-0.96c0.08-0.29,0.18-0.58,0.28-0.86c0.03-0.08,0.06-0.15,0.09-0.23
			c-0.07,0.17-0.08,0.19-0.03,0.07c0.06-0.12,0.11-0.25,0.17-0.37c0.29-0.59,0.63-1.15,1.02-1.68c0.58-0.79,0.16-2.13-0.67-2.57
			C298.67,370.77,297.7,371.11,297.08,371.96L297.08,371.96z"/>
	</g>
</g>
</svg>
